# New-car chassis placeholder, metres.
# Alternating edge lengths: 0.382 m straight edges and 0.126 m 45-degree chamfers.
# Ground is z=0; the chassis/gimbal interface is z=0.115 m.
o new_car_octagonal_chassis
v  0.2800954544  0.1910000000 0.0000000000
v  0.1910000000  0.2800954544 0.0000000000
v -0.1910000000  0.2800954544 0.0000000000
v -0.2800954544  0.1910000000 0.0000000000
v -0.2800954544 -0.1910000000 0.0000000000
v -0.1910000000 -0.2800954544 0.0000000000
v  0.1910000000 -0.2800954544 0.0000000000
v  0.2800954544 -0.1910000000 0.0000000000
v  0.2800954544  0.1910000000 0.1150000000
v  0.1910000000  0.2800954544 0.1150000000
v -0.1910000000  0.2800954544 0.1150000000
v -0.2800954544  0.1910000000 0.1150000000
v -0.2800954544 -0.1910000000 0.1150000000
v -0.1910000000 -0.2800954544 0.1150000000
v  0.1910000000 -0.2800954544 0.1150000000
v  0.2800954544 -0.1910000000 0.1150000000
f 1 8 7 6 5 4 3 2
f 9 10 11 12 13 14 15 16
f 1 2 10 9
f 2 3 11 10
f 3 4 12 11
f 4 5 13 12
f 5 6 14 13
f 6 7 15 14
f 7 8 16 15
f 8 1 9 16
