<?xml version="1.0" encoding="utf-8" standalone="no"?>
<!DOCTYPE svg PUBLIC "-//W3C//DTD SVG 1.1//EN"
  "http://www.w3.org/Graphics/SVG/1.1/DTD/svg11.dtd">
<svg xmlns:xlink="http://www.w3.org/1999/xlink" width="878.4pt" height="381.6pt" viewBox="0 0 878.4 381.6" xmlns="http://www.w3.org/2000/svg" version="1.1">
 <metadata>
  <rdf:RDF xmlns:dc="http://purl.org/dc/elements/1.1/" xmlns:cc="http://creativecommons.org/ns#" xmlns:rdf="http://www.w3.org/1999/02/22-rdf-syntax-ns#">
   <cc:Work>
    <dc:type rdf:resource="http://purl.org/dc/dcmitype/StillImage"/>
    <dc:format>image/svg+xml</dc:format>
    <dc:creator>
     <cc:Agent>
      <dc:title>Matplotlib v3.6.3, https://matplotlib.org/</dc:title>
     </cc:Agent>
    </dc:creator>
   </cc:Work>
  </rdf:RDF>
 </metadata>
 <defs>
  <style type="text/css">*{stroke-linejoin: round; stroke-linecap: butt}</style>
 </defs>
 <g id="figure_1">
  <g id="patch_1">
   <path d="M 0 381.6 
L 878.4 381.6 
L 878.4 0 
L 0 0 
z
" style="fill: #ffffff"/>
  </g>
  <g id="axes_1">
   <g id="patch_2">
    <path d="M 56.18 267.444859 
L 441.591437 267.444859 
L 441.591437 74.739141 
L 56.18 74.739141 
z
" style="fill: #ffffff"/>
   </g>
   <g id="patch_3">
    <path d="M 148.016319 216.257403 
L 169.093507 216.257403 
L 169.093507 150.014812 
L 148.016319 150.014812 
z
" clip-path="url(#pd2c01d67ef)" style="fill: #865139; opacity: 0.55; stroke: #865139; stroke-linejoin: miter"/>
   </g>
   <g id="matplotlib.axis_1">
    <g id="xtick_1">
     <g id="line2d_1">
      <path d="M 74.246161 267.444859 
L 74.246161 74.739141 
" clip-path="url(#pd2c01d67ef)" style="fill: none; stroke: #b0b0b0; stroke-opacity: 0.18; stroke-width: 0.8; stroke-linecap: square"/>
     </g>
     <g id="line2d_2">
      <defs>
       <path id="mdff54241a9" d="M 0 0 
L 0 3.5 
" style="stroke: #000000; stroke-width: 0.8"/>
      </defs>
      <g>
       <use xlink:href="#mdff54241a9" x="74.246161" y="267.444859" style="stroke: #000000; stroke-width: 0.8"/>
      </g>
     </g>
     <g id="text_1">
      <!-- 0 -->
      <g transform="translate(71.064911 282.043297) scale(0.1 -0.1)">
       <defs>
        <path id="DejaVuSans-30" d="M 2034 4250 
Q 1547 4250 1301 3770 
Q 1056 3291 1056 2328 
Q 1056 1369 1301 889 
Q 1547 409 2034 409 
Q 2525 409 2770 889 
Q 3016 1369 3016 2328 
Q 3016 3291 2770 3770 
Q 2525 4250 2034 4250 
z
M 2034 4750 
Q 2819 4750 3233 4129 
Q 3647 3509 3647 2328 
Q 3647 1150 3233 529 
Q 2819 -91 2034 -91 
Q 1250 -91 836 529 
Q 422 1150 422 2328 
Q 422 3509 836 4129 
Q 1250 4750 2034 4750 
z
" transform="scale(0.015625)"/>
       </defs>
       <use xlink:href="#DejaVuSans-30"/>
      </g>
     </g>
    </g>
    <g id="xtick_2">
     <g id="line2d_3">
      <path d="M 134.466698 267.444859 
L 134.466698 74.739141 
" clip-path="url(#pd2c01d67ef)" style="fill: none; stroke: #b0b0b0; stroke-opacity: 0.18; stroke-width: 0.8; stroke-linecap: square"/>
     </g>
     <g id="line2d_4">
      <g>
       <use xlink:href="#mdff54241a9" x="134.466698" y="267.444859" style="stroke: #000000; stroke-width: 0.8"/>
      </g>
     </g>
     <g id="text_2">
      <!-- 1 -->
      <g transform="translate(131.285448 282.043297) scale(0.1 -0.1)">
       <defs>
        <path id="DejaVuSans-31" d="M 794 531 
L 1825 531 
L 1825 4091 
L 703 3866 
L 703 4441 
L 1819 4666 
L 2450 4666 
L 2450 531 
L 3481 531 
L 3481 0 
L 794 0 
L 794 531 
z
" transform="scale(0.015625)"/>
       </defs>
       <use xlink:href="#DejaVuSans-31"/>
      </g>
     </g>
    </g>
    <g id="xtick_3">
     <g id="line2d_5">
      <path d="M 194.687235 267.444859 
L 194.687235 74.739141 
" clip-path="url(#pd2c01d67ef)" style="fill: none; stroke: #b0b0b0; stroke-opacity: 0.18; stroke-width: 0.8; stroke-linecap: square"/>
     </g>
     <g id="line2d_6">
      <g>
       <use xlink:href="#mdff54241a9" x="194.687235" y="267.444859" style="stroke: #000000; stroke-width: 0.8"/>
      </g>
     </g>
     <g id="text_3">
      <!-- 2 -->
      <g transform="translate(191.505985 282.043297) scale(0.1 -0.1)">
       <defs>
        <path id="DejaVuSans-32" d="M 1228 531 
L 3431 531 
L 3431 0 
L 469 0 
L 469 531 
Q 828 903 1448 1529 
Q 2069 2156 2228 2338 
Q 2531 2678 2651 2914 
Q 2772 3150 2772 3378 
Q 2772 3750 2511 3984 
Q 2250 4219 1831 4219 
Q 1534 4219 1204 4116 
Q 875 4013 500 3803 
L 500 4441 
Q 881 4594 1212 4672 
Q 1544 4750 1819 4750 
Q 2544 4750 2975 4387 
Q 3406 4025 3406 3419 
Q 3406 3131 3298 2873 
Q 3191 2616 2906 2266 
Q 2828 2175 2409 1742 
Q 1991 1309 1228 531 
z
" transform="scale(0.015625)"/>
       </defs>
       <use xlink:href="#DejaVuSans-32"/>
      </g>
     </g>
    </g>
    <g id="xtick_4">
     <g id="line2d_7">
      <path d="M 254.907772 267.444859 
L 254.907772 74.739141 
" clip-path="url(#pd2c01d67ef)" style="fill: none; stroke: #b0b0b0; stroke-opacity: 0.18; stroke-width: 0.8; stroke-linecap: square"/>
     </g>
     <g id="line2d_8">
      <g>
       <use xlink:href="#mdff54241a9" x="254.907772" y="267.444859" style="stroke: #000000; stroke-width: 0.8"/>
      </g>
     </g>
     <g id="text_4">
      <!-- 3 -->
      <g transform="translate(251.726522 282.043297) scale(0.1 -0.1)">
       <defs>
        <path id="DejaVuSans-33" d="M 2597 2516 
Q 3050 2419 3304 2112 
Q 3559 1806 3559 1356 
Q 3559 666 3084 287 
Q 2609 -91 1734 -91 
Q 1441 -91 1130 -33 
Q 819 25 488 141 
L 488 750 
Q 750 597 1062 519 
Q 1375 441 1716 441 
Q 2309 441 2620 675 
Q 2931 909 2931 1356 
Q 2931 1769 2642 2001 
Q 2353 2234 1838 2234 
L 1294 2234 
L 1294 2753 
L 1863 2753 
Q 2328 2753 2575 2939 
Q 2822 3125 2822 3475 
Q 2822 3834 2567 4026 
Q 2313 4219 1838 4219 
Q 1578 4219 1281 4162 
Q 984 4106 628 3988 
L 628 4550 
Q 988 4650 1302 4700 
Q 1616 4750 1894 4750 
Q 2613 4750 3031 4423 
Q 3450 4097 3450 3541 
Q 3450 3153 3228 2886 
Q 3006 2619 2597 2516 
z
" transform="scale(0.015625)"/>
       </defs>
       <use xlink:href="#DejaVuSans-33"/>
      </g>
     </g>
    </g>
    <g id="xtick_5">
     <g id="line2d_9">
      <path d="M 315.128309 267.444859 
L 315.128309 74.739141 
" clip-path="url(#pd2c01d67ef)" style="fill: none; stroke: #b0b0b0; stroke-opacity: 0.18; stroke-width: 0.8; stroke-linecap: square"/>
     </g>
     <g id="line2d_10">
      <g>
       <use xlink:href="#mdff54241a9" x="315.128309" y="267.444859" style="stroke: #000000; stroke-width: 0.8"/>
      </g>
     </g>
     <g id="text_5">
      <!-- 4 -->
      <g transform="translate(311.947059 282.043297) scale(0.1 -0.1)">
       <defs>
        <path id="DejaVuSans-34" d="M 2419 4116 
L 825 1625 
L 2419 1625 
L 2419 4116 
z
M 2253 4666 
L 3047 4666 
L 3047 1625 
L 3713 1625 
L 3713 1100 
L 3047 1100 
L 3047 0 
L 2419 0 
L 2419 1100 
L 313 1100 
L 313 1709 
L 2253 4666 
z
" transform="scale(0.015625)"/>
       </defs>
       <use xlink:href="#DejaVuSans-34"/>
      </g>
     </g>
    </g>
    <g id="xtick_6">
     <g id="line2d_11">
      <path d="M 375.348846 267.444859 
L 375.348846 74.739141 
" clip-path="url(#pd2c01d67ef)" style="fill: none; stroke: #b0b0b0; stroke-opacity: 0.18; stroke-width: 0.8; stroke-linecap: square"/>
     </g>
     <g id="line2d_12">
      <g>
       <use xlink:href="#mdff54241a9" x="375.348846" y="267.444859" style="stroke: #000000; stroke-width: 0.8"/>
      </g>
     </g>
     <g id="text_6">
      <!-- 5 -->
      <g transform="translate(372.167596 282.043297) scale(0.1 -0.1)">
       <defs>
        <path id="DejaVuSans-35" d="M 691 4666 
L 3169 4666 
L 3169 4134 
L 1269 4134 
L 1269 2991 
Q 1406 3038 1543 3061 
Q 1681 3084 1819 3084 
Q 2600 3084 3056 2656 
Q 3513 2228 3513 1497 
Q 3513 744 3044 326 
Q 2575 -91 1722 -91 
Q 1428 -91 1123 -41 
Q 819 9 494 109 
L 494 744 
Q 775 591 1075 516 
Q 1375 441 1709 441 
Q 2250 441 2565 725 
Q 2881 1009 2881 1497 
Q 2881 1984 2565 2268 
Q 2250 2553 1709 2553 
Q 1456 2553 1204 2497 
Q 953 2441 691 2322 
L 691 4666 
z
" transform="scale(0.015625)"/>
       </defs>
       <use xlink:href="#DejaVuSans-35"/>
      </g>
     </g>
    </g>
    <g id="xtick_7">
     <g id="line2d_13">
      <path d="M 435.569383 267.444859 
L 435.569383 74.739141 
" clip-path="url(#pd2c01d67ef)" style="fill: none; stroke: #b0b0b0; stroke-opacity: 0.18; stroke-width: 0.8; stroke-linecap: square"/>
     </g>
     <g id="line2d_14">
      <g>
       <use xlink:href="#mdff54241a9" x="435.569383" y="267.444859" style="stroke: #000000; stroke-width: 0.8"/>
      </g>
     </g>
     <g id="text_7">
      <!-- 6 -->
      <g transform="translate(432.388133 282.043297) scale(0.1 -0.1)">
       <defs>
        <path id="DejaVuSans-36" d="M 2113 2584 
Q 1688 2584 1439 2293 
Q 1191 2003 1191 1497 
Q 1191 994 1439 701 
Q 1688 409 2113 409 
Q 2538 409 2786 701 
Q 3034 994 3034 1497 
Q 3034 2003 2786 2293 
Q 2538 2584 2113 2584 
z
M 3366 4563 
L 3366 3988 
Q 3128 4100 2886 4159 
Q 2644 4219 2406 4219 
Q 1781 4219 1451 3797 
Q 1122 3375 1075 2522 
Q 1259 2794 1537 2939 
Q 1816 3084 2150 3084 
Q 2853 3084 3261 2657 
Q 3669 2231 3669 1497 
Q 3669 778 3244 343 
Q 2819 -91 2113 -91 
Q 1303 -91 875 529 
Q 447 1150 447 2328 
Q 447 3434 972 4092 
Q 1497 4750 2381 4750 
Q 2619 4750 2861 4703 
Q 3103 4656 3366 4563 
z
" transform="scale(0.015625)"/>
       </defs>
       <use xlink:href="#DejaVuSans-36"/>
      </g>
     </g>
    </g>
    <g id="text_8">
     <!-- world x (m) -->
     <g transform="translate(220.209156 295.721422) scale(0.1 -0.1)">
      <defs>
       <path id="DejaVuSans-77" d="M 269 3500 
L 844 3500 
L 1563 769 
L 2278 3500 
L 2956 3500 
L 3675 769 
L 4391 3500 
L 4966 3500 
L 4050 0 
L 3372 0 
L 2619 2869 
L 1863 0 
L 1184 0 
L 269 3500 
z
" transform="scale(0.015625)"/>
       <path id="DejaVuSans-6f" d="M 1959 3097 
Q 1497 3097 1228 2736 
Q 959 2375 959 1747 
Q 959 1119 1226 758 
Q 1494 397 1959 397 
Q 2419 397 2687 759 
Q 2956 1122 2956 1747 
Q 2956 2369 2687 2733 
Q 2419 3097 1959 3097 
z
M 1959 3584 
Q 2709 3584 3137 3096 
Q 3566 2609 3566 1747 
Q 3566 888 3137 398 
Q 2709 -91 1959 -91 
Q 1206 -91 779 398 
Q 353 888 353 1747 
Q 353 2609 779 3096 
Q 1206 3584 1959 3584 
z
" transform="scale(0.015625)"/>
       <path id="DejaVuSans-72" d="M 2631 2963 
Q 2534 3019 2420 3045 
Q 2306 3072 2169 3072 
Q 1681 3072 1420 2755 
Q 1159 2438 1159 1844 
L 1159 0 
L 581 0 
L 581 3500 
L 1159 3500 
L 1159 2956 
Q 1341 3275 1631 3429 
Q 1922 3584 2338 3584 
Q 2397 3584 2469 3576 
Q 2541 3569 2628 3553 
L 2631 2963 
z
" transform="scale(0.015625)"/>
       <path id="DejaVuSans-6c" d="M 603 4863 
L 1178 4863 
L 1178 0 
L 603 0 
L 603 4863 
z
" transform="scale(0.015625)"/>
       <path id="DejaVuSans-64" d="M 2906 2969 
L 2906 4863 
L 3481 4863 
L 3481 0 
L 2906 0 
L 2906 525 
Q 2725 213 2448 61 
Q 2172 -91 1784 -91 
Q 1150 -91 751 415 
Q 353 922 353 1747 
Q 353 2572 751 3078 
Q 1150 3584 1784 3584 
Q 2172 3584 2448 3432 
Q 2725 3281 2906 2969 
z
M 947 1747 
Q 947 1113 1208 752 
Q 1469 391 1925 391 
Q 2381 391 2643 752 
Q 2906 1113 2906 1747 
Q 2906 2381 2643 2742 
Q 2381 3103 1925 3103 
Q 1469 3103 1208 2742 
Q 947 2381 947 1747 
z
" transform="scale(0.015625)"/>
       <path id="DejaVuSans-20" transform="scale(0.015625)"/>
       <path id="DejaVuSans-78" d="M 3513 3500 
L 2247 1797 
L 3578 0 
L 2900 0 
L 1881 1375 
L 863 0 
L 184 0 
L 1544 1831 
L 300 3500 
L 978 3500 
L 1906 2253 
L 2834 3500 
L 3513 3500 
z
" transform="scale(0.015625)"/>
       <path id="DejaVuSans-28" d="M 1984 4856 
Q 1566 4138 1362 3434 
Q 1159 2731 1159 2009 
Q 1159 1288 1364 580 
Q 1569 -128 1984 -844 
L 1484 -844 
Q 1016 -109 783 600 
Q 550 1309 550 2009 
Q 550 2706 781 3412 
Q 1013 4119 1484 4856 
L 1984 4856 
z
" transform="scale(0.015625)"/>
       <path id="DejaVuSans-6d" d="M 3328 2828 
Q 3544 3216 3844 3400 
Q 4144 3584 4550 3584 
Q 5097 3584 5394 3201 
Q 5691 2819 5691 2113 
L 5691 0 
L 5113 0 
L 5113 2094 
Q 5113 2597 4934 2840 
Q 4756 3084 4391 3084 
Q 3944 3084 3684 2787 
Q 3425 2491 3425 1978 
L 3425 0 
L 2847 0 
L 2847 2094 
Q 2847 2600 2669 2842 
Q 2491 3084 2119 3084 
Q 1678 3084 1418 2786 
Q 1159 2488 1159 1978 
L 1159 0 
L 581 0 
L 581 3500 
L 1159 3500 
L 1159 2956 
Q 1356 3278 1631 3431 
Q 1906 3584 2284 3584 
Q 2666 3584 2933 3390 
Q 3200 3197 3328 2828 
z
" transform="scale(0.015625)"/>
       <path id="DejaVuSans-29" d="M 513 4856 
L 1013 4856 
Q 1481 4119 1714 3412 
Q 1947 2706 1947 2009 
Q 1947 1309 1714 600 
Q 1481 -109 1013 -844 
L 513 -844 
Q 928 -128 1133 580 
Q 1338 1288 1338 2009 
Q 1338 2731 1133 3434 
Q 928 4138 513 4856 
z
" transform="scale(0.015625)"/>
      </defs>
      <use xlink:href="#DejaVuSans-77"/>
      <use xlink:href="#DejaVuSans-6f" x="81.787109"/>
      <use xlink:href="#DejaVuSans-72" x="142.96875"/>
      <use xlink:href="#DejaVuSans-6c" x="184.082031"/>
      <use xlink:href="#DejaVuSans-64" x="211.865234"/>
      <use xlink:href="#DejaVuSans-20" x="275.341797"/>
      <use xlink:href="#DejaVuSans-78" x="307.128906"/>
      <use xlink:href="#DejaVuSans-20" x="366.308594"/>
      <use xlink:href="#DejaVuSans-28" x="398.095703"/>
      <use xlink:href="#DejaVuSans-6d" x="437.109375"/>
      <use xlink:href="#DejaVuSans-29" x="534.521484"/>
     </g>
    </g>
   </g>
   <g id="matplotlib.axis_2">
    <g id="ytick_1">
     <g id="line2d_15">
      <path d="M 56.18 243.356644 
L 441.591437 243.356644 
" clip-path="url(#pd2c01d67ef)" style="fill: none; stroke: #b0b0b0; stroke-opacity: 0.18; stroke-width: 0.8; stroke-linecap: square"/>
     </g>
     <g id="line2d_16">
      <defs>
       <path id="m1968907145" d="M 0 0 
L -3.5 0 
" style="stroke: #000000; stroke-width: 0.8"/>
      </defs>
      <g>
       <use xlink:href="#m1968907145" x="56.18" y="243.356644" style="stroke: #000000; stroke-width: 0.8"/>
      </g>
     </g>
     <g id="text_9">
      <!-- −1.0 -->
      <g transform="translate(24.897187 247.155863) scale(0.1 -0.1)">
       <defs>
        <path id="DejaVuSans-2212" d="M 678 2272 
L 4684 2272 
L 4684 1741 
L 678 1741 
L 678 2272 
z
" transform="scale(0.015625)"/>
        <path id="DejaVuSans-2e" d="M 684 794 
L 1344 794 
L 1344 0 
L 684 0 
L 684 794 
z
" transform="scale(0.015625)"/>
       </defs>
       <use xlink:href="#DejaVuSans-2212"/>
       <use xlink:href="#DejaVuSans-31" x="83.789062"/>
       <use xlink:href="#DejaVuSans-2e" x="147.412109"/>
       <use xlink:href="#DejaVuSans-30" x="179.199219"/>
      </g>
     </g>
    </g>
    <g id="ytick_2">
     <g id="line2d_17">
      <path d="M 56.18 213.246376 
L 441.591437 213.246376 
" clip-path="url(#pd2c01d67ef)" style="fill: none; stroke: #b0b0b0; stroke-opacity: 0.18; stroke-width: 0.8; stroke-linecap: square"/>
     </g>
     <g id="line2d_18">
      <g>
       <use xlink:href="#m1968907145" x="56.18" y="213.246376" style="stroke: #000000; stroke-width: 0.8"/>
      </g>
     </g>
     <g id="text_10">
      <!-- −0.5 -->
      <g transform="translate(24.897187 217.045595) scale(0.1 -0.1)">
       <use xlink:href="#DejaVuSans-2212"/>
       <use xlink:href="#DejaVuSans-30" x="83.789062"/>
       <use xlink:href="#DejaVuSans-2e" x="147.412109"/>
       <use xlink:href="#DejaVuSans-35" x="179.199219"/>
      </g>
     </g>
    </g>
    <g id="ytick_3">
     <g id="line2d_19">
      <path d="M 56.18 183.136107 
L 441.591437 183.136107 
" clip-path="url(#pd2c01d67ef)" style="fill: none; stroke: #b0b0b0; stroke-opacity: 0.18; stroke-width: 0.8; stroke-linecap: square"/>
     </g>
     <g id="line2d_20">
      <g>
       <use xlink:href="#m1968907145" x="56.18" y="183.136107" style="stroke: #000000; stroke-width: 0.8"/>
      </g>
     </g>
     <g id="text_11">
      <!-- 0.0 -->
      <g transform="translate(33.276875 186.935326) scale(0.1 -0.1)">
       <use xlink:href="#DejaVuSans-30"/>
       <use xlink:href="#DejaVuSans-2e" x="63.623047"/>
       <use xlink:href="#DejaVuSans-30" x="95.410156"/>
      </g>
     </g>
    </g>
    <g id="ytick_4">
     <g id="line2d_21">
      <path d="M 56.18 153.025839 
L 441.591437 153.025839 
" clip-path="url(#pd2c01d67ef)" style="fill: none; stroke: #b0b0b0; stroke-opacity: 0.18; stroke-width: 0.8; stroke-linecap: square"/>
     </g>
     <g id="line2d_22">
      <g>
       <use xlink:href="#m1968907145" x="56.18" y="153.025839" style="stroke: #000000; stroke-width: 0.8"/>
      </g>
     </g>
     <g id="text_12">
      <!-- 0.5 -->
      <g transform="translate(33.276875 156.825058) scale(0.1 -0.1)">
       <use xlink:href="#DejaVuSans-30"/>
       <use xlink:href="#DejaVuSans-2e" x="63.623047"/>
       <use xlink:href="#DejaVuSans-35" x="95.410156"/>
      </g>
     </g>
    </g>
    <g id="ytick_5">
     <g id="line2d_23">
      <path d="M 56.18 122.91557 
L 441.591437 122.91557 
" clip-path="url(#pd2c01d67ef)" style="fill: none; stroke: #b0b0b0; stroke-opacity: 0.18; stroke-width: 0.8; stroke-linecap: square"/>
     </g>
     <g id="line2d_24">
      <g>
       <use xlink:href="#m1968907145" x="56.18" y="122.91557" style="stroke: #000000; stroke-width: 0.8"/>
      </g>
     </g>
     <g id="text_13">
      <!-- 1.0 -->
      <g transform="translate(33.276875 126.714789) scale(0.1 -0.1)">
       <use xlink:href="#DejaVuSans-31"/>
       <use xlink:href="#DejaVuSans-2e" x="63.623047"/>
       <use xlink:href="#DejaVuSans-30" x="95.410156"/>
      </g>
     </g>
    </g>
    <g id="ytick_6">
     <g id="line2d_25">
      <path d="M 56.18 92.805302 
L 441.591437 92.805302 
" clip-path="url(#pd2c01d67ef)" style="fill: none; stroke: #b0b0b0; stroke-opacity: 0.18; stroke-width: 0.8; stroke-linecap: square"/>
     </g>
     <g id="line2d_26">
      <g>
       <use xlink:href="#m1968907145" x="56.18" y="92.805302" style="stroke: #000000; stroke-width: 0.8"/>
      </g>
     </g>
     <g id="text_14">
      <!-- 1.5 -->
      <g transform="translate(33.276875 96.604521) scale(0.1 -0.1)">
       <use xlink:href="#DejaVuSans-31"/>
       <use xlink:href="#DejaVuSans-2e" x="63.623047"/>
       <use xlink:href="#DejaVuSans-35" x="95.410156"/>
      </g>
     </g>
    </g>
    <g id="text_15">
     <!-- world y (m) -->
     <g transform="translate(18.8175 199.768562) rotate(-90) scale(0.1 -0.1)">
      <defs>
       <path id="DejaVuSans-79" d="M 2059 -325 
Q 1816 -950 1584 -1140 
Q 1353 -1331 966 -1331 
L 506 -1331 
L 506 -850 
L 844 -850 
Q 1081 -850 1212 -737 
Q 1344 -625 1503 -206 
L 1606 56 
L 191 3500 
L 800 3500 
L 1894 763 
L 2988 3500 
L 3597 3500 
L 2059 -325 
z
" transform="scale(0.015625)"/>
      </defs>
      <use xlink:href="#DejaVuSans-77"/>
      <use xlink:href="#DejaVuSans-6f" x="81.787109"/>
      <use xlink:href="#DejaVuSans-72" x="142.96875"/>
      <use xlink:href="#DejaVuSans-6c" x="184.082031"/>
      <use xlink:href="#DejaVuSans-64" x="211.865234"/>
      <use xlink:href="#DejaVuSans-20" x="275.341797"/>
      <use xlink:href="#DejaVuSans-79" x="307.128906"/>
      <use xlink:href="#DejaVuSans-20" x="366.308594"/>
      <use xlink:href="#DejaVuSans-28" x="398.095703"/>
      <use xlink:href="#DejaVuSans-6d" x="437.109375"/>
      <use xlink:href="#DejaVuSans-29" x="534.521484"/>
     </g>
    </g>
   </g>
   <g id="line2d_27">
    <path d="M 74.246161 183.136107 
L 74.346399 182.835323 
L 75.500565 180.576011 
L 77.011197 178.005125 
L 79.685682 173.582671 
L 85.933179 162.652226 
L 88.539148 157.987376 
L 90.952485 153.019369 
L 93.497168 147.950879 
L 94.623735 145.664684 
L 95.123799 143.850343 
L 95.689416 141.558398 
L 96.223988 140.821981 
L 97.325078 139.665276 
L 97.197365 139.647374 
L 96.724978 139.921199 
L 95.602788 141.084984 
L 95.264779 141.693746 
L 94.709924 142.834524 
L 93.871259 144.265925 
L 93.95092 144.442825 
L 94.295088 144.502203 
L 95.434692 144.200885 
L 96.284913 143.545911 
L 96.122613 143.865504 
L 95.799709 144.797415 
L 95.778907 145.522256 
L 96.047415 148.847939 
L 93.509154 152.400723 
L 92.714609 153.276515 
L 89.041223 156.665367 
L 88.993937 156.806415 
L 89.01467 156.562061 
L 88.955671 155.788622 
L 89.222101 154.621866 
L 89.090595 154.128335 
L 88.722776 153.686514 
L 88.204049 153.277398 
L 87.14648 152.772165 
L 85.562581 151.829678 
L 83.809448 150.618633 
L 82.673444 149.516971 
L 82.118496 148.64868 
L 81.745481 147.746387 
L 81.587984 146.469167 
L 81.635815 145.399544 
L 82.045705 143.961144 
L 82.636618 142.903569 
L 83.843825 141.25345 
L 85.86247 139.162089 
L 87.809212 137.502113 
L 89.957174 135.727567 
L 91.064802 134.819891 
L 91.799139 134.09483 
L 92.179641 133.11858 
L 92.091278 132.346572 
L 91.715475 131.597693 
L 91.445107 131.034293 
L 91.499104 130.496135 
L 91.831837 130.122866 
L 92.236749 129.676037 
L 93.057266 128.56534 
L 94.057379 127.509544 
L 94.561904 126.483562 
L 94.56724 125.945866 
L 94.224366 125.06806 
L 93.432313 123.870954 
L 93.395683 123.149038 
L 93.599333 122.57186 
L 93.94452 121.958207 
L 94.699447 121.091868 
L 95.787638 120.28284 
L 97.492828 119.067603 
L 98.924458 118.187851 
L 108.430641 113.089741 
L 110.925322 110.681873 
L 111.846084 109.733973 
L 116.63169 105.875622 
L 117.351648 104.772294 
L 119.713316 100.801098 
L 120.447542 100.003358 
L 122.045035 98.704547 
L 122.846917 98.361314 
L 123.540135 98.32394 
L 124.324065 98.502213 
L 126.829991 99.208304 
L 129.232714 99.246296 
L 130.19775 99.120196 
L 130.583793 98.811043 
L 131.317743 97.403141 
L 131.797399 95.596627 
L 131.884566 94.539429 
L 131.747893 92.961027 
L 131.213126 89.454097 
L 130.623896 87.526743 
L 130.254626 86.145311 
L 130.134762 84.733866 
L 130.100394 83.008424 
L 130.394236 80.149769 
L 130.701089 79.341752 
L 130.964071 79.059299 
L 131.466462 78.947474 
L 132.576115 79.238354 
L 133.654641 79.589364 
L 137.50071 80.870044 
L 142.833994 82.213789 
L 146.794408 82.855285 
L 150.090421 83.425375 
L 155.459894 84.637588 
L 160.408571 86.291201 
L 163.141575 87.53062 
L 165.305668 88.794424 
L 165.889567 89.472034 
L 165.999684 89.508678 
L 166.82462 89.655603 
L 167.291839 89.257046 
L 167.090242 89.60128 
L 166.961824 89.784209 
L 166.975058 89.70386 
L 167.402709 89.31097 
L 167.748196 89.1697 
L 168.056144 89.220417 
L 168.384699 89.616293 
L 168.538724 90.158339 
L 168.452353 90.307873 
L 168.348168 90.31164 
L 167.797893 89.872447 
L 166.879795 89.187344 
L 167.265033 89.313246 
L 169.403255 90.045547 
L 169.383336 89.924258 
L 169.430484 89.815148 
L 171.539996 89.607854 
L 173.144526 89.757715 
L 175.176657 90.303908 
L 178.416898 91.57886 
L 186.742604 95.307016 
L 191.588501 97.229036 
L 193.007312 98.196433 
L 193.746344 99.089841 
L 193.851503 99.412833 
L 194.194809 99.940769 
L 195.278714 101.084825 
L 195.988975 102.212251 
L 195.890745 102.309627 
L 195.165006 102.759799 
L 194.733673 102.789539 
L 194.614738 102.58582 
L 194.76758 102.273969 
L 195.229047 101.728072 
L 196.375608 101.035304 
L 197.405322 100.864533 
L 198.048186 101.029401 
L 198.75669 101.369972 
L 199.850645 101.817326 
L 201.412504 102.129118 
L 203.849192 102.652847 
L 205.379583 103.092322 
L 207.069159 103.770059 
L 211.712332 106.131346 
L 216.304071 108.914451 
L 218.103311 110.120198 
L 224.524963 114.928446 
L 226.022994 115.841735 
L 228.624435 117.222704 
L 232.448559 118.886693 
L 237.441431 120.781085 
L 242.832077 122.597318 
L 247.6683 124.013238 
L 249.811929 124.334655 
L 252.445468 124.545815 
L 256.396673 124.670066 
L 268.907481 124.969815 
L 273.649615 125.150122 
L 276.129319 125.078568 
L 277.603758 124.769977 
L 279.770564 124.433493 
L 285.97401 123.249721 
L 287.423283 122.782198 
L 288.598476 122.187407 
L 289.669145 121.703092 
L 291.225178 121.238378 
L 291.159794 121.329446 
L 290.860617 121.785955 
L 290.93765 122.40646 
L 291.601766 125.631979 
L 292.844023 129.814502 
L 294.050307 135.114441 
L 293.901115 136.161967 
L 293.78477 136.988181 
L 294.00048 137.893437 
L 294.385461 139.158145 
L 294.362659 140.897011 
L 294.290287 143.335278 
L 294.34224 145.091745 
L 294.893673 147.946546 
L 296.222262 154.431248 
L 297.289199 161.626108 
L 298.698773 170.205276 
L 299.0336 171.502841 
L 299.771415 173.482698 
L 300.17273 173.966146 
L 300.460953 174.036123 
L 300.772197 173.97508 
L 301.661758 173.445528 
L 303.473842 172.097502 
L 308.602676 168.315803 
L 312.546898 165.497271 
L 314.579995 164.166095 
L 316.196158 163.289926 
L 317.413284 162.894297 
L 319.175373 162.615823 
L 320.606647 162.641215 
L 322.099198 162.826522 
L 328.097673 163.859192 
L 332.399492 164.249557 
L 337.350393 163.804062 
L 338.565464 163.652349 
L 340.43385 163.648415 
L 340.388856 163.570647 
L 339.949411 162.582269 
L 337.37254 156.364823 
L 335.075214 151.121675 
L 335.075214 151.121675 
" clip-path="url(#pd2c01d67ef)" style="fill: none; stroke: #286e9d; stroke-width: 1.5; stroke-linecap: square"/>
   </g>
   <g id="line2d_28">
    <path d="M 369.326792 125.945233 
L 369.326792 240.345618 
L 369.326792 125.926687 
L 369.326792 179.315774 
" clip-path="url(#pd2c01d67ef)" style="fill: none; stroke-dasharray: 5.55,2.4; stroke-dashoffset: 0; stroke: #a73d2a; stroke-width: 1.5"/>
   </g>
   <g id="line2d_29">
    <defs>
     <path id="mf20bc92a94" d="M 0 -6 
L -1.347084 -1.854102 
L -5.706339 -1.854102 
L -2.179628 0.708204 
L -3.526712 4.854102 
L -0 2.291796 
L 3.526712 4.854102 
L 2.179628 0.708204 
L 5.706339 -1.854102 
L 1.347084 -1.854102 
z
" style="stroke: #333333; stroke-linejoin: bevel"/>
    </defs>
    <g clip-path="url(#pd2c01d67ef)">
     <use xlink:href="#mf20bc92a94" x="411.481168" y="183.136107" style="fill: #333333; stroke: #333333; stroke-linejoin: bevel"/>
    </g>
   </g>
   <g id="line2d_30">
    <defs>
     <path id="mb7a7415402" d="M 0 3 
C 0.795609 3 1.55874 2.683901 2.12132 2.12132 
C 2.683901 1.55874 3 0.795609 3 0 
C 3 -0.795609 2.683901 -1.55874 2.12132 -2.12132 
C 1.55874 -2.683901 0.795609 -3 0 -3 
C -0.795609 -3 -1.55874 -2.683901 -2.12132 -2.12132 
C -2.683901 -1.55874 -3 -0.795609 -3 0 
C -3 0.795609 -2.683901 1.55874 -2.12132 2.12132 
C -1.55874 2.683901 -0.795609 3 0 3 
z
" style="stroke: #c53528"/>
    </defs>
    <g clip-path="url(#pd2c01d67ef)">
     <use xlink:href="#mb7a7415402" x="340.43385" y="163.648415" style="fill: #c53528; stroke: #c53528"/>
    </g>
   </g>
   <g id="patch_4">
    <path d="M 56.18 267.444859 
L 56.18 74.739141 
" style="fill: none; stroke: #000000; stroke-width: 0.8; stroke-linejoin: miter; stroke-linecap: square"/>
   </g>
   <g id="patch_5">
    <path d="M 441.591437 267.444859 
L 441.591437 74.739141 
" style="fill: none; stroke: #000000; stroke-width: 0.8; stroke-linejoin: miter; stroke-linecap: square"/>
   </g>
   <g id="patch_6">
    <path d="M 56.18 267.444859 
L 441.591437 267.444859 
" style="fill: none; stroke: #000000; stroke-width: 0.8; stroke-linejoin: miter; stroke-linecap: square"/>
   </g>
   <g id="patch_7">
    <path d="M 56.18 74.739141 
L 441.591437 74.739141 
" style="fill: none; stroke: #000000; stroke-width: 0.8; stroke-linejoin: miter; stroke-linecap: square"/>
   </g>
   <g id="text_16">
    <!-- Native cycle evidence trial: safety / task FAILED -->
    <g transform="translate(117.773453 68.739141) scale(0.11 -0.11)">
     <defs>
      <path id="DejaVuSans-4e" d="M 628 4666 
L 1478 4666 
L 3547 763 
L 3547 4666 
L 4159 4666 
L 4159 0 
L 3309 0 
L 1241 3903 
L 1241 0 
L 628 0 
L 628 4666 
z
" transform="scale(0.015625)"/>
      <path id="DejaVuSans-61" d="M 2194 1759 
Q 1497 1759 1228 1600 
Q 959 1441 959 1056 
Q 959 750 1161 570 
Q 1363 391 1709 391 
Q 2188 391 2477 730 
Q 2766 1069 2766 1631 
L 2766 1759 
L 2194 1759 
z
M 3341 1997 
L 3341 0 
L 2766 0 
L 2766 531 
Q 2569 213 2275 61 
Q 1981 -91 1556 -91 
Q 1019 -91 701 211 
Q 384 513 384 1019 
Q 384 1609 779 1909 
Q 1175 2209 1959 2209 
L 2766 2209 
L 2766 2266 
Q 2766 2663 2505 2880 
Q 2244 3097 1772 3097 
Q 1472 3097 1187 3025 
Q 903 2953 641 2809 
L 641 3341 
Q 956 3463 1253 3523 
Q 1550 3584 1831 3584 
Q 2591 3584 2966 3190 
Q 3341 2797 3341 1997 
z
" transform="scale(0.015625)"/>
      <path id="DejaVuSans-74" d="M 1172 4494 
L 1172 3500 
L 2356 3500 
L 2356 3053 
L 1172 3053 
L 1172 1153 
Q 1172 725 1289 603 
Q 1406 481 1766 481 
L 2356 481 
L 2356 0 
L 1766 0 
Q 1100 0 847 248 
Q 594 497 594 1153 
L 594 3053 
L 172 3053 
L 172 3500 
L 594 3500 
L 594 4494 
L 1172 4494 
z
" transform="scale(0.015625)"/>
      <path id="DejaVuSans-69" d="M 603 3500 
L 1178 3500 
L 1178 0 
L 603 0 
L 603 3500 
z
M 603 4863 
L 1178 4863 
L 1178 4134 
L 603 4134 
L 603 4863 
z
" transform="scale(0.015625)"/>
      <path id="DejaVuSans-76" d="M 191 3500 
L 800 3500 
L 1894 563 
L 2988 3500 
L 3597 3500 
L 2284 0 
L 1503 0 
L 191 3500 
z
" transform="scale(0.015625)"/>
      <path id="DejaVuSans-65" d="M 3597 1894 
L 3597 1613 
L 953 1613 
Q 991 1019 1311 708 
Q 1631 397 2203 397 
Q 2534 397 2845 478 
Q 3156 559 3463 722 
L 3463 178 
Q 3153 47 2828 -22 
Q 2503 -91 2169 -91 
Q 1331 -91 842 396 
Q 353 884 353 1716 
Q 353 2575 817 3079 
Q 1281 3584 2069 3584 
Q 2775 3584 3186 3129 
Q 3597 2675 3597 1894 
z
M 3022 2063 
Q 3016 2534 2758 2815 
Q 2500 3097 2075 3097 
Q 1594 3097 1305 2825 
Q 1016 2553 972 2059 
L 3022 2063 
z
" transform="scale(0.015625)"/>
      <path id="DejaVuSans-63" d="M 3122 3366 
L 3122 2828 
Q 2878 2963 2633 3030 
Q 2388 3097 2138 3097 
Q 1578 3097 1268 2742 
Q 959 2388 959 1747 
Q 959 1106 1268 751 
Q 1578 397 2138 397 
Q 2388 397 2633 464 
Q 2878 531 3122 666 
L 3122 134 
Q 2881 22 2623 -34 
Q 2366 -91 2075 -91 
Q 1284 -91 818 406 
Q 353 903 353 1747 
Q 353 2603 823 3093 
Q 1294 3584 2113 3584 
Q 2378 3584 2631 3529 
Q 2884 3475 3122 3366 
z
" transform="scale(0.015625)"/>
      <path id="DejaVuSans-6e" d="M 3513 2113 
L 3513 0 
L 2938 0 
L 2938 2094 
Q 2938 2591 2744 2837 
Q 2550 3084 2163 3084 
Q 1697 3084 1428 2787 
Q 1159 2491 1159 1978 
L 1159 0 
L 581 0 
L 581 3500 
L 1159 3500 
L 1159 2956 
Q 1366 3272 1645 3428 
Q 1925 3584 2291 3584 
Q 2894 3584 3203 3211 
Q 3513 2838 3513 2113 
z
" transform="scale(0.015625)"/>
      <path id="DejaVuSans-3a" d="M 750 794 
L 1409 794 
L 1409 0 
L 750 0 
L 750 794 
z
M 750 3309 
L 1409 3309 
L 1409 2516 
L 750 2516 
L 750 3309 
z
" transform="scale(0.015625)"/>
      <path id="DejaVuSans-73" d="M 2834 3397 
L 2834 2853 
Q 2591 2978 2328 3040 
Q 2066 3103 1784 3103 
Q 1356 3103 1142 2972 
Q 928 2841 928 2578 
Q 928 2378 1081 2264 
Q 1234 2150 1697 2047 
L 1894 2003 
Q 2506 1872 2764 1633 
Q 3022 1394 3022 966 
Q 3022 478 2636 193 
Q 2250 -91 1575 -91 
Q 1294 -91 989 -36 
Q 684 19 347 128 
L 347 722 
Q 666 556 975 473 
Q 1284 391 1588 391 
Q 1994 391 2212 530 
Q 2431 669 2431 922 
Q 2431 1156 2273 1281 
Q 2116 1406 1581 1522 
L 1381 1569 
Q 847 1681 609 1914 
Q 372 2147 372 2553 
Q 372 3047 722 3315 
Q 1072 3584 1716 3584 
Q 2034 3584 2315 3537 
Q 2597 3491 2834 3397 
z
" transform="scale(0.015625)"/>
      <path id="DejaVuSans-66" d="M 2375 4863 
L 2375 4384 
L 1825 4384 
Q 1516 4384 1395 4259 
Q 1275 4134 1275 3809 
L 1275 3500 
L 2222 3500 
L 2222 3053 
L 1275 3053 
L 1275 0 
L 697 0 
L 697 3053 
L 147 3053 
L 147 3500 
L 697 3500 
L 697 3744 
Q 697 4328 969 4595 
Q 1241 4863 1831 4863 
L 2375 4863 
z
" transform="scale(0.015625)"/>
      <path id="DejaVuSans-2f" d="M 1625 4666 
L 2156 4666 
L 531 -594 
L 0 -594 
L 1625 4666 
z
" transform="scale(0.015625)"/>
      <path id="DejaVuSans-6b" d="M 581 4863 
L 1159 4863 
L 1159 1991 
L 2875 3500 
L 3609 3500 
L 1753 1863 
L 3688 0 
L 2938 0 
L 1159 1709 
L 1159 0 
L 581 0 
L 581 4863 
z
" transform="scale(0.015625)"/>
      <path id="DejaVuSans-46" d="M 628 4666 
L 3309 4666 
L 3309 4134 
L 1259 4134 
L 1259 2759 
L 3109 2759 
L 3109 2228 
L 1259 2228 
L 1259 0 
L 628 0 
L 628 4666 
z
" transform="scale(0.015625)"/>
      <path id="DejaVuSans-41" d="M 2188 4044 
L 1331 1722 
L 3047 1722 
L 2188 4044 
z
M 1831 4666 
L 2547 4666 
L 4325 0 
L 3669 0 
L 3244 1197 
L 1141 1197 
L 716 0 
L 50 0 
L 1831 4666 
z
" transform="scale(0.015625)"/>
      <path id="DejaVuSans-49" d="M 628 4666 
L 1259 4666 
L 1259 0 
L 628 0 
L 628 4666 
z
" transform="scale(0.015625)"/>
      <path id="DejaVuSans-4c" d="M 628 4666 
L 1259 4666 
L 1259 531 
L 3531 531 
L 3531 0 
L 628 0 
L 628 4666 
z
" transform="scale(0.015625)"/>
      <path id="DejaVuSans-45" d="M 628 4666 
L 3578 4666 
L 3578 4134 
L 1259 4134 
L 1259 2753 
L 3481 2753 
L 3481 2222 
L 1259 2222 
L 1259 531 
L 3634 531 
L 3634 0 
L 628 0 
L 628 4666 
z
" transform="scale(0.015625)"/>
      <path id="DejaVuSans-44" d="M 1259 4147 
L 1259 519 
L 2022 519 
Q 2988 519 3436 956 
Q 3884 1394 3884 2338 
Q 3884 3275 3436 3711 
Q 2988 4147 2022 4147 
L 1259 4147 
z
M 628 4666 
L 1925 4666 
Q 3281 4666 3915 4102 
Q 4550 3538 4550 2338 
Q 4550 1131 3912 565 
Q 3275 0 1925 0 
L 628 0 
L 628 4666 
z
" transform="scale(0.015625)"/>
     </defs>
     <use xlink:href="#DejaVuSans-4e"/>
     <use xlink:href="#DejaVuSans-61" x="74.804688"/>
     <use xlink:href="#DejaVuSans-74" x="136.083984"/>
     <use xlink:href="#DejaVuSans-69" x="175.292969"/>
     <use xlink:href="#DejaVuSans-76" x="203.076172"/>
     <use xlink:href="#DejaVuSans-65" x="262.255859"/>
     <use xlink:href="#DejaVuSans-20" x="323.779297"/>
     <use xlink:href="#DejaVuSans-63" x="355.566406"/>
     <use xlink:href="#DejaVuSans-79" x="410.546875"/>
     <use xlink:href="#DejaVuSans-63" x="469.726562"/>
     <use xlink:href="#DejaVuSans-6c" x="524.707031"/>
     <use xlink:href="#DejaVuSans-65" x="552.490234"/>
     <use xlink:href="#DejaVuSans-20" x="614.013672"/>
     <use xlink:href="#DejaVuSans-65" x="645.800781"/>
     <use xlink:href="#DejaVuSans-76" x="707.324219"/>
     <use xlink:href="#DejaVuSans-69" x="766.503906"/>
     <use xlink:href="#DejaVuSans-64" x="794.287109"/>
     <use xlink:href="#DejaVuSans-65" x="857.763672"/>
     <use xlink:href="#DejaVuSans-6e" x="919.287109"/>
     <use xlink:href="#DejaVuSans-63" x="982.666016"/>
     <use xlink:href="#DejaVuSans-65" x="1037.646484"/>
     <use xlink:href="#DejaVuSans-20" x="1099.169922"/>
     <use xlink:href="#DejaVuSans-74" x="1130.957031"/>
     <use xlink:href="#DejaVuSans-72" x="1170.166016"/>
     <use xlink:href="#DejaVuSans-69" x="1211.279297"/>
     <use xlink:href="#DejaVuSans-61" x="1239.0625"/>
     <use xlink:href="#DejaVuSans-6c" x="1300.341797"/>
     <use xlink:href="#DejaVuSans-3a" x="1328.125"/>
     <use xlink:href="#DejaVuSans-20" x="1361.816406"/>
     <use xlink:href="#DejaVuSans-73" x="1393.603516"/>
     <use xlink:href="#DejaVuSans-61" x="1445.703125"/>
     <use xlink:href="#DejaVuSans-66" x="1506.982422"/>
     <use xlink:href="#DejaVuSans-65" x="1542.1875"/>
     <use xlink:href="#DejaVuSans-74" x="1603.710938"/>
     <use xlink:href="#DejaVuSans-79" x="1642.919922"/>
     <use xlink:href="#DejaVuSans-20" x="1702.099609"/>
     <use xlink:href="#DejaVuSans-2f" x="1733.886719"/>
     <use xlink:href="#DejaVuSans-20" x="1767.578125"/>
     <use xlink:href="#DejaVuSans-74" x="1799.365234"/>
     <use xlink:href="#DejaVuSans-61" x="1838.574219"/>
     <use xlink:href="#DejaVuSans-73" x="1899.853516"/>
     <use xlink:href="#DejaVuSans-6b" x="1951.953125"/>
     <use xlink:href="#DejaVuSans-20" x="2009.863281"/>
     <use xlink:href="#DejaVuSans-46" x="2041.650391"/>
     <use xlink:href="#DejaVuSans-41" x="2090.044922"/>
     <use xlink:href="#DejaVuSans-49" x="2158.453125"/>
     <use xlink:href="#DejaVuSans-4c" x="2187.945312"/>
     <use xlink:href="#DejaVuSans-45" x="2243.658203"/>
     <use xlink:href="#DejaVuSans-44" x="2306.841797"/>
    </g>
   </g>
   <g id="legend_1">
    <g id="patch_8">
     <path d="M 61.36 263.744859 
L 207.956313 263.744859 
Q 209.436313 263.744859 209.436313 262.264859 
L 209.436313 208.695797 
Q 209.436313 207.215797 207.956313 207.215797 
L 61.36 207.215797 
Q 59.88 207.215797 59.88 208.695797 
L 59.88 262.264859 
Q 59.88 263.744859 61.36 263.744859 
z
" style="fill: #ffffff; opacity: 0.9; stroke: #cccccc; stroke-linejoin: miter"/>
    </g>
    <g id="line2d_31">
     <path d="M 62.84 213.20864 
L 70.24 213.20864 
L 77.64 213.20864 
" style="fill: none; stroke: #286e9d; stroke-width: 1.5; stroke-linecap: square"/>
    </g>
    <g id="text_17">
     <!-- Robot path (physical truth) -->
     <g transform="translate(83.56 215.79864) scale(0.074 -0.074)">
      <defs>
       <path id="DejaVuSans-52" d="M 2841 2188 
Q 3044 2119 3236 1894 
Q 3428 1669 3622 1275 
L 4263 0 
L 3584 0 
L 2988 1197 
Q 2756 1666 2539 1819 
Q 2322 1972 1947 1972 
L 1259 1972 
L 1259 0 
L 628 0 
L 628 4666 
L 2053 4666 
Q 2853 4666 3247 4331 
Q 3641 3997 3641 3322 
Q 3641 2881 3436 2590 
Q 3231 2300 2841 2188 
z
M 1259 4147 
L 1259 2491 
L 2053 2491 
Q 2509 2491 2742 2702 
Q 2975 2913 2975 3322 
Q 2975 3731 2742 3939 
Q 2509 4147 2053 4147 
L 1259 4147 
z
" transform="scale(0.015625)"/>
       <path id="DejaVuSans-62" d="M 3116 1747 
Q 3116 2381 2855 2742 
Q 2594 3103 2138 3103 
Q 1681 3103 1420 2742 
Q 1159 2381 1159 1747 
Q 1159 1113 1420 752 
Q 1681 391 2138 391 
Q 2594 391 2855 752 
Q 3116 1113 3116 1747 
z
M 1159 2969 
Q 1341 3281 1617 3432 
Q 1894 3584 2278 3584 
Q 2916 3584 3314 3078 
Q 3713 2572 3713 1747 
Q 3713 922 3314 415 
Q 2916 -91 2278 -91 
Q 1894 -91 1617 61 
Q 1341 213 1159 525 
L 1159 0 
L 581 0 
L 581 4863 
L 1159 4863 
L 1159 2969 
z
" transform="scale(0.015625)"/>
       <path id="DejaVuSans-70" d="M 1159 525 
L 1159 -1331 
L 581 -1331 
L 581 3500 
L 1159 3500 
L 1159 2969 
Q 1341 3281 1617 3432 
Q 1894 3584 2278 3584 
Q 2916 3584 3314 3078 
Q 3713 2572 3713 1747 
Q 3713 922 3314 415 
Q 2916 -91 2278 -91 
Q 1894 -91 1617 61 
Q 1341 213 1159 525 
z
M 3116 1747 
Q 3116 2381 2855 2742 
Q 2594 3103 2138 3103 
Q 1681 3103 1420 2742 
Q 1159 2381 1159 1747 
Q 1159 1113 1420 752 
Q 1681 391 2138 391 
Q 2594 391 2855 752 
Q 3116 1113 3116 1747 
z
" transform="scale(0.015625)"/>
       <path id="DejaVuSans-68" d="M 3513 2113 
L 3513 0 
L 2938 0 
L 2938 2094 
Q 2938 2591 2744 2837 
Q 2550 3084 2163 3084 
Q 1697 3084 1428 2787 
Q 1159 2491 1159 1978 
L 1159 0 
L 581 0 
L 581 4863 
L 1159 4863 
L 1159 2956 
Q 1366 3272 1645 3428 
Q 1925 3584 2291 3584 
Q 2894 3584 3203 3211 
Q 3513 2838 3513 2113 
z
" transform="scale(0.015625)"/>
       <path id="DejaVuSans-75" d="M 544 1381 
L 544 3500 
L 1119 3500 
L 1119 1403 
Q 1119 906 1312 657 
Q 1506 409 1894 409 
Q 2359 409 2629 706 
Q 2900 1003 2900 1516 
L 2900 3500 
L 3475 3500 
L 3475 0 
L 2900 0 
L 2900 538 
Q 2691 219 2414 64 
Q 2138 -91 1772 -91 
Q 1169 -91 856 284 
Q 544 659 544 1381 
z
M 1991 3584 
L 1991 3584 
z
" transform="scale(0.015625)"/>
      </defs>
      <use xlink:href="#DejaVuSans-52"/>
      <use xlink:href="#DejaVuSans-6f" x="64.982422"/>
      <use xlink:href="#DejaVuSans-62" x="126.164062"/>
      <use xlink:href="#DejaVuSans-6f" x="189.640625"/>
      <use xlink:href="#DejaVuSans-74" x="250.822266"/>
      <use xlink:href="#DejaVuSans-20" x="290.03125"/>
      <use xlink:href="#DejaVuSans-70" x="321.818359"/>
      <use xlink:href="#DejaVuSans-61" x="385.294922"/>
      <use xlink:href="#DejaVuSans-74" x="446.574219"/>
      <use xlink:href="#DejaVuSans-68" x="485.783203"/>
      <use xlink:href="#DejaVuSans-20" x="549.162109"/>
      <use xlink:href="#DejaVuSans-28" x="580.949219"/>
      <use xlink:href="#DejaVuSans-70" x="619.962891"/>
      <use xlink:href="#DejaVuSans-68" x="683.439453"/>
      <use xlink:href="#DejaVuSans-79" x="746.818359"/>
      <use xlink:href="#DejaVuSans-73" x="805.998047"/>
      <use xlink:href="#DejaVuSans-69" x="858.097656"/>
      <use xlink:href="#DejaVuSans-63" x="885.880859"/>
      <use xlink:href="#DejaVuSans-61" x="940.861328"/>
      <use xlink:href="#DejaVuSans-6c" x="1002.140625"/>
      <use xlink:href="#DejaVuSans-20" x="1029.923828"/>
      <use xlink:href="#DejaVuSans-74" x="1061.710938"/>
      <use xlink:href="#DejaVuSans-72" x="1100.919922"/>
      <use xlink:href="#DejaVuSans-75" x="1142.033203"/>
      <use xlink:href="#DejaVuSans-74" x="1205.412109"/>
      <use xlink:href="#DejaVuSans-68" x="1244.621094"/>
      <use xlink:href="#DejaVuSans-29" x="1308"/>
     </g>
    </g>
    <g id="line2d_32">
     <path d="M 62.84 224.070453 
L 70.24 224.070453 
L 77.64 224.070453 
" style="fill: none; stroke-dasharray: 5.55,2.4; stroke-dashoffset: 0; stroke: #a73d2a; stroke-width: 1.5"/>
    </g>
    <g id="text_18">
     <!-- Actor path (truth) -->
     <g transform="translate(83.56 226.660453) scale(0.074 -0.074)">
      <use xlink:href="#DejaVuSans-41"/>
      <use xlink:href="#DejaVuSans-63" x="66.658203"/>
      <use xlink:href="#DejaVuSans-74" x="121.638672"/>
      <use xlink:href="#DejaVuSans-6f" x="160.847656"/>
      <use xlink:href="#DejaVuSans-72" x="222.029297"/>
      <use xlink:href="#DejaVuSans-20" x="263.142578"/>
      <use xlink:href="#DejaVuSans-70" x="294.929688"/>
      <use xlink:href="#DejaVuSans-61" x="358.40625"/>
      <use xlink:href="#DejaVuSans-74" x="419.685547"/>
      <use xlink:href="#DejaVuSans-68" x="458.894531"/>
      <use xlink:href="#DejaVuSans-20" x="522.273438"/>
      <use xlink:href="#DejaVuSans-28" x="554.060547"/>
      <use xlink:href="#DejaVuSans-74" x="593.074219"/>
      <use xlink:href="#DejaVuSans-72" x="632.283203"/>
      <use xlink:href="#DejaVuSans-75" x="673.396484"/>
      <use xlink:href="#DejaVuSans-74" x="736.775391"/>
      <use xlink:href="#DejaVuSans-68" x="775.984375"/>
      <use xlink:href="#DejaVuSans-29" x="839.363281"/>
     </g>
    </g>
    <g id="patch_9">
     <path d="M 62.84 237.522265 
L 77.64 237.522265 
L 77.64 232.342265 
L 62.84 232.342265 
z
" style="fill: #865139; opacity: 0.55; stroke: #865139; stroke-linejoin: miter"/>
    </g>
    <g id="text_19">
     <!-- Static block -->
     <g transform="translate(83.56 237.522265) scale(0.074 -0.074)">
      <defs>
       <path id="DejaVuSans-53" d="M 3425 4513 
L 3425 3897 
Q 3066 4069 2747 4153 
Q 2428 4238 2131 4238 
Q 1616 4238 1336 4038 
Q 1056 3838 1056 3469 
Q 1056 3159 1242 3001 
Q 1428 2844 1947 2747 
L 2328 2669 
Q 3034 2534 3370 2195 
Q 3706 1856 3706 1288 
Q 3706 609 3251 259 
Q 2797 -91 1919 -91 
Q 1588 -91 1214 -16 
Q 841 59 441 206 
L 441 856 
Q 825 641 1194 531 
Q 1563 422 1919 422 
Q 2459 422 2753 634 
Q 3047 847 3047 1241 
Q 3047 1584 2836 1778 
Q 2625 1972 2144 2069 
L 1759 2144 
Q 1053 2284 737 2584 
Q 422 2884 422 3419 
Q 422 4038 858 4394 
Q 1294 4750 2059 4750 
Q 2388 4750 2728 4690 
Q 3069 4631 3425 4513 
z
" transform="scale(0.015625)"/>
      </defs>
      <use xlink:href="#DejaVuSans-53"/>
      <use xlink:href="#DejaVuSans-74" x="63.476562"/>
      <use xlink:href="#DejaVuSans-61" x="102.685547"/>
      <use xlink:href="#DejaVuSans-74" x="163.964844"/>
      <use xlink:href="#DejaVuSans-69" x="203.173828"/>
      <use xlink:href="#DejaVuSans-63" x="230.957031"/>
      <use xlink:href="#DejaVuSans-20" x="285.9375"/>
      <use xlink:href="#DejaVuSans-62" x="317.724609"/>
      <use xlink:href="#DejaVuSans-6c" x="381.201172"/>
      <use xlink:href="#DejaVuSans-6f" x="408.984375"/>
      <use xlink:href="#DejaVuSans-63" x="470.166016"/>
      <use xlink:href="#DejaVuSans-6b" x="525.146484"/>
     </g>
    </g>
    <g id="line2d_33">
     <g>
      <use xlink:href="#mf20bc92a94" x="70.24" y="245.794078" style="fill: #333333; stroke: #333333; stroke-linejoin: bevel"/>
     </g>
    </g>
    <g id="text_20">
     <!-- Goal, not reached -->
     <g transform="translate(83.56 248.384078) scale(0.074 -0.074)">
      <defs>
       <path id="DejaVuSans-47" d="M 3809 666 
L 3809 1919 
L 2778 1919 
L 2778 2438 
L 4434 2438 
L 4434 434 
Q 4069 175 3628 42 
Q 3188 -91 2688 -91 
Q 1594 -91 976 548 
Q 359 1188 359 2328 
Q 359 3472 976 4111 
Q 1594 4750 2688 4750 
Q 3144 4750 3555 4637 
Q 3966 4525 4313 4306 
L 4313 3634 
Q 3963 3931 3569 4081 
Q 3175 4231 2741 4231 
Q 1884 4231 1454 3753 
Q 1025 3275 1025 2328 
Q 1025 1384 1454 906 
Q 1884 428 2741 428 
Q 3075 428 3337 486 
Q 3600 544 3809 666 
z
" transform="scale(0.015625)"/>
       <path id="DejaVuSans-2c" d="M 750 794 
L 1409 794 
L 1409 256 
L 897 -744 
L 494 -744 
L 750 256 
L 750 794 
z
" transform="scale(0.015625)"/>
      </defs>
      <use xlink:href="#DejaVuSans-47"/>
      <use xlink:href="#DejaVuSans-6f" x="77.490234"/>
      <use xlink:href="#DejaVuSans-61" x="138.671875"/>
      <use xlink:href="#DejaVuSans-6c" x="199.951172"/>
      <use xlink:href="#DejaVuSans-2c" x="227.734375"/>
      <use xlink:href="#DejaVuSans-20" x="259.521484"/>
      <use xlink:href="#DejaVuSans-6e" x="291.308594"/>
      <use xlink:href="#DejaVuSans-6f" x="354.6875"/>
      <use xlink:href="#DejaVuSans-74" x="415.869141"/>
      <use xlink:href="#DejaVuSans-20" x="455.078125"/>
      <use xlink:href="#DejaVuSans-72" x="486.865234"/>
      <use xlink:href="#DejaVuSans-65" x="525.728516"/>
      <use xlink:href="#DejaVuSans-61" x="587.251953"/>
      <use xlink:href="#DejaVuSans-63" x="648.53125"/>
      <use xlink:href="#DejaVuSans-68" x="703.511719"/>
      <use xlink:href="#DejaVuSans-65" x="766.890625"/>
      <use xlink:href="#DejaVuSans-64" x="828.414062"/>
     </g>
    </g>
    <g id="line2d_34">
     <g>
      <use xlink:href="#mb7a7415402" x="70.24" y="256.65589" style="fill: #c53528; stroke: #c53528"/>
     </g>
    </g>
    <g id="text_21">
     <!-- First mechanical margin violation -->
     <g transform="translate(83.56 259.24589) scale(0.074 -0.074)">
      <defs>
       <path id="DejaVuSans-67" d="M 2906 1791 
Q 2906 2416 2648 2759 
Q 2391 3103 1925 3103 
Q 1463 3103 1205 2759 
Q 947 2416 947 1791 
Q 947 1169 1205 825 
Q 1463 481 1925 481 
Q 2391 481 2648 825 
Q 2906 1169 2906 1791 
z
M 3481 434 
Q 3481 -459 3084 -895 
Q 2688 -1331 1869 -1331 
Q 1566 -1331 1297 -1286 
Q 1028 -1241 775 -1147 
L 775 -588 
Q 1028 -725 1275 -790 
Q 1522 -856 1778 -856 
Q 2344 -856 2625 -561 
Q 2906 -266 2906 331 
L 2906 616 
Q 2728 306 2450 153 
Q 2172 0 1784 0 
Q 1141 0 747 490 
Q 353 981 353 1791 
Q 353 2603 747 3093 
Q 1141 3584 1784 3584 
Q 2172 3584 2450 3431 
Q 2728 3278 2906 2969 
L 2906 3500 
L 3481 3500 
L 3481 434 
z
" transform="scale(0.015625)"/>
      </defs>
      <use xlink:href="#DejaVuSans-46"/>
      <use xlink:href="#DejaVuSans-69" x="50.269531"/>
      <use xlink:href="#DejaVuSans-72" x="78.052734"/>
      <use xlink:href="#DejaVuSans-73" x="119.166016"/>
      <use xlink:href="#DejaVuSans-74" x="171.265625"/>
      <use xlink:href="#DejaVuSans-20" x="210.474609"/>
      <use xlink:href="#DejaVuSans-6d" x="242.261719"/>
      <use xlink:href="#DejaVuSans-65" x="339.673828"/>
      <use xlink:href="#DejaVuSans-63" x="401.197266"/>
      <use xlink:href="#DejaVuSans-68" x="456.177734"/>
      <use xlink:href="#DejaVuSans-61" x="519.556641"/>
      <use xlink:href="#DejaVuSans-6e" x="580.835938"/>
      <use xlink:href="#DejaVuSans-69" x="644.214844"/>
      <use xlink:href="#DejaVuSans-63" x="671.998047"/>
      <use xlink:href="#DejaVuSans-61" x="726.978516"/>
      <use xlink:href="#DejaVuSans-6c" x="788.257812"/>
      <use xlink:href="#DejaVuSans-20" x="816.041016"/>
      <use xlink:href="#DejaVuSans-6d" x="847.828125"/>
      <use xlink:href="#DejaVuSans-61" x="945.240234"/>
      <use xlink:href="#DejaVuSans-72" x="1006.519531"/>
      <use xlink:href="#DejaVuSans-67" x="1045.882812"/>
      <use xlink:href="#DejaVuSans-69" x="1109.359375"/>
      <use xlink:href="#DejaVuSans-6e" x="1137.142578"/>
      <use xlink:href="#DejaVuSans-20" x="1200.521484"/>
      <use xlink:href="#DejaVuSans-76" x="1232.308594"/>
      <use xlink:href="#DejaVuSans-69" x="1291.488281"/>
      <use xlink:href="#DejaVuSans-6f" x="1319.271484"/>
      <use xlink:href="#DejaVuSans-6c" x="1380.453125"/>
      <use xlink:href="#DejaVuSans-61" x="1408.236328"/>
      <use xlink:href="#DejaVuSans-74" x="1469.515625"/>
      <use xlink:href="#DejaVuSans-69" x="1508.724609"/>
      <use xlink:href="#DejaVuSans-6f" x="1536.507812"/>
      <use xlink:href="#DejaVuSans-6e" x="1597.689453"/>
     </g>
    </g>
   </g>
  </g>
  <g id="axes_2">
   <g id="patch_10">
    <path d="M 536.956032 316.744 
L 812.832532 316.744 
L 812.832532 25.44 
L 536.956032 25.44 
z
" style="fill: #ffffff"/>
   </g>
   <g id="patch_11">
    <path d="M 699.98512 101.644467 
L 584.76619 101.779083 
L 584.891325 208.884004 
L 700.110256 208.749388 
L 699.98512 101.644467 
z
" clip-path="url(#pc6459bd8fd)" style="fill: none; stroke-dasharray: 3.7,1.6; stroke-dashoffset: 0; stroke: #1d769d; stroke-linejoin: miter"/>
   </g>
   <g id="patch_12">
    <path d="M 691.074878 114.63731 
L 691.169678 195.777401 
L 593.801568 195.891161 
L 593.706768 114.751069 
z
" clip-path="url(#pc6459bd8fd)" style="fill: #74a6c0; opacity: 0.65; stroke: #286e9d; stroke-linejoin: miter"/>
   </g>
   <g id="patch_13">
    <path d="M 601.910837 203.995698 
C 605.13863 203.995698 608.234655 202.713283 610.517049 200.430889 
C 612.799443 198.148494 614.081859 195.052469 614.081859 191.824676 
C 614.081859 188.596884 612.799443 185.500858 610.517049 183.218464 
C 608.234655 180.93607 605.13863 179.653654 601.910837 179.653654 
C 598.683044 179.653654 595.587019 180.93607 593.304625 183.218464 
C 591.02223 185.500858 589.739815 188.596884 589.739815 191.824676 
C 589.739815 195.052469 591.02223 198.148494 593.304625 200.430889 
C 595.587019 202.713283 598.683044 203.995698 601.910837 203.995698 
L 601.910837 203.995698 
z
" clip-path="url(#pc6459bd8fd)" style="fill: none; stroke: #4b5358; stroke-linejoin: miter"/>
   </g>
   <g id="patch_14">
    <path d="M 601.825517 130.969616 
C 605.05331 130.969616 608.149335 129.6872 610.431729 127.404806 
C 612.714124 125.122412 613.996539 122.026387 613.996539 118.798594 
C 613.996539 115.570801 612.714124 112.474776 610.431729 110.192382 
C 608.149335 107.909987 605.05331 106.627572 601.825517 106.627572 
C 598.597724 106.627572 595.501699 107.909987 593.219305 110.192382 
C 590.936911 112.474776 589.654495 115.570801 589.654495 118.798594 
C 589.654495 122.026387 590.936911 125.122412 593.219305 127.404806 
C 595.501699 129.6872 598.597724 130.969616 601.825517 130.969616 
L 601.825517 130.969616 
z
" clip-path="url(#pc6459bd8fd)" style="fill: none; stroke: #4b5358; stroke-linejoin: miter"/>
   </g>
   <g id="patch_15">
    <path d="M 683.050928 203.900899 
C 686.278721 203.900899 689.374747 202.618483 691.657141 200.336089 
C 693.939535 198.053695 695.221951 194.95767 695.221951 191.729877 
C 695.221951 188.502084 693.939535 185.406059 691.657141 183.123665 
C 689.374747 180.84127 686.278721 179.558855 683.050928 179.558855 
C 679.823136 179.558855 676.72711 180.84127 674.444716 183.123665 
C 672.162322 185.406059 670.879906 188.502084 670.879906 191.729877 
C 670.879906 194.95767 672.162322 198.053695 674.444716 200.336089 
C 676.72711 202.618483 679.823136 203.900899 683.050928 203.900899 
L 683.050928 203.900899 
z
" clip-path="url(#pc6459bd8fd)" style="fill: none; stroke: #4b5358; stroke-linejoin: miter"/>
   </g>
   <g id="patch_16">
    <path d="M 682.965609 130.874816 
C 686.193402 130.874816 689.289427 129.592401 691.571821 127.310006 
C 693.854215 125.027612 695.136631 121.931587 695.136631 118.703794 
C 695.136631 115.476001 693.854215 112.379976 691.571821 110.097582 
C 689.289427 107.815188 686.193402 106.532772 682.965609 106.532772 
C 679.737816 106.532772 676.641791 107.815188 674.359397 110.097582 
C 672.077002 112.379976 670.794587 115.476001 670.794587 118.703794 
C 670.794587 121.931587 672.077002 125.027612 674.359397 127.310006 
C 676.641791 129.592401 679.737816 130.874816 682.965609 130.874816 
L 682.965609 130.874816 
z
" clip-path="url(#pc6459bd8fd)" style="fill: none; stroke: #4b5358; stroke-linejoin: miter"/>
   </g>
   <g id="patch_17">
    <path d="M 683.784894 300.515971 
L 756.811026 300.515971 
L 756.811026 211.261809 
L 683.784894 211.261809 
z
" clip-path="url(#pc6459bd8fd)" style="fill: #d4785e; opacity: 0.65; stroke: #a73d2a; stroke-linejoin: miter"/>
   </g>
   <g id="patch_18">
    <path d="M 705.151911 293.940304 
C 720.645316 293.940304 735.506238 287.784709 746.461729 276.829217 
C 757.417221 265.873725 763.572817 251.012803 763.572817 235.519398 
C 763.572817 220.025992 757.417221 205.165071 746.461729 194.209579 
C 735.506238 183.254087 720.645316 177.098492 705.151911 177.098492 
C 689.658505 177.098492 674.797584 183.254087 663.842092 194.209579 
C 652.8866 205.165071 646.731005 220.025992 646.731005 235.519398 
C 646.731005 251.012803 652.8866 265.873725 663.842092 276.829217 
C 674.797584 287.784709 689.658505 293.940304 705.151911 293.940304 
L 705.151911 293.940304 
z
" clip-path="url(#pc6459bd8fd)" style="fill: none; stroke: #7f48ac; stroke-width: 1.5; stroke-linejoin: miter"/>
   </g>
   <g id="matplotlib.axis_3">
    <g id="xtick_8">
     <g id="line2d_35">
      <path d="M 541.789637 316.744 
L 541.789637 25.44 
" clip-path="url(#pc6459bd8fd)" style="fill: none; stroke: #b0b0b0; stroke-opacity: 0.18; stroke-width: 0.8; stroke-linecap: square"/>
     </g>
     <g id="line2d_36">
      <g>
       <use xlink:href="#mdff54241a9" x="541.789637" y="316.744" style="stroke: #000000; stroke-width: 0.8"/>
      </g>
     </g>
     <g id="text_22">
      <!-- 3.8 -->
      <g transform="translate(533.838074 331.342437) scale(0.1 -0.1)">
       <defs>
        <path id="DejaVuSans-38" d="M 2034 2216 
Q 1584 2216 1326 1975 
Q 1069 1734 1069 1313 
Q 1069 891 1326 650 
Q 1584 409 2034 409 
Q 2484 409 2743 651 
Q 3003 894 3003 1313 
Q 3003 1734 2745 1975 
Q 2488 2216 2034 2216 
z
M 1403 2484 
Q 997 2584 770 2862 
Q 544 3141 544 3541 
Q 544 4100 942 4425 
Q 1341 4750 2034 4750 
Q 2731 4750 3128 4425 
Q 3525 4100 3525 3541 
Q 3525 3141 3298 2862 
Q 3072 2584 2669 2484 
Q 3125 2378 3379 2068 
Q 3634 1759 3634 1313 
Q 3634 634 3220 271 
Q 2806 -91 2034 -91 
Q 1263 -91 848 271 
Q 434 634 434 1313 
Q 434 1759 690 2068 
Q 947 2378 1403 2484 
z
M 1172 3481 
Q 1172 3119 1398 2916 
Q 1625 2713 2034 2713 
Q 2441 2713 2670 2916 
Q 2900 3119 2900 3481 
Q 2900 3844 2670 4047 
Q 2441 4250 2034 4250 
Q 1625 4250 1398 4047 
Q 1172 3844 1172 3481 
z
" transform="scale(0.015625)"/>
       </defs>
       <use xlink:href="#DejaVuSans-33"/>
       <use xlink:href="#DejaVuSans-2e" x="63.623047"/>
       <use xlink:href="#DejaVuSans-38" x="95.410156"/>
      </g>
     </g>
    </g>
    <g id="xtick_9">
     <g id="line2d_37">
      <path d="M 574.245696 316.744 
L 574.245696 25.44 
" clip-path="url(#pc6459bd8fd)" style="fill: none; stroke: #b0b0b0; stroke-opacity: 0.18; stroke-width: 0.8; stroke-linecap: square"/>
     </g>
     <g id="line2d_38">
      <g>
       <use xlink:href="#mdff54241a9" x="574.245696" y="316.744" style="stroke: #000000; stroke-width: 0.8"/>
      </g>
     </g>
     <g id="text_23">
      <!-- 4.0 -->
      <g transform="translate(566.294133 331.342437) scale(0.1 -0.1)">
       <use xlink:href="#DejaVuSans-34"/>
       <use xlink:href="#DejaVuSans-2e" x="63.623047"/>
       <use xlink:href="#DejaVuSans-30" x="95.410156"/>
      </g>
     </g>
    </g>
    <g id="xtick_10">
     <g id="line2d_39">
      <path d="M 606.701754 316.744 
L 606.701754 25.44 
" clip-path="url(#pc6459bd8fd)" style="fill: none; stroke: #b0b0b0; stroke-opacity: 0.18; stroke-width: 0.8; stroke-linecap: square"/>
     </g>
     <g id="line2d_40">
      <g>
       <use xlink:href="#mdff54241a9" x="606.701754" y="316.744" style="stroke: #000000; stroke-width: 0.8"/>
      </g>
     </g>
     <g id="text_24">
      <!-- 4.2 -->
      <g transform="translate(598.750192 331.342437) scale(0.1 -0.1)">
       <use xlink:href="#DejaVuSans-34"/>
       <use xlink:href="#DejaVuSans-2e" x="63.623047"/>
       <use xlink:href="#DejaVuSans-32" x="95.410156"/>
      </g>
     </g>
    </g>
    <g id="xtick_11">
     <g id="line2d_41">
      <path d="M 639.157813 316.744 
L 639.157813 25.44 
" clip-path="url(#pc6459bd8fd)" style="fill: none; stroke: #b0b0b0; stroke-opacity: 0.18; stroke-width: 0.8; stroke-linecap: square"/>
     </g>
     <g id="line2d_42">
      <g>
       <use xlink:href="#mdff54241a9" x="639.157813" y="316.744" style="stroke: #000000; stroke-width: 0.8"/>
      </g>
     </g>
     <g id="text_25">
      <!-- 4.4 -->
      <g transform="translate(631.206251 331.342437) scale(0.1 -0.1)">
       <use xlink:href="#DejaVuSans-34"/>
       <use xlink:href="#DejaVuSans-2e" x="63.623047"/>
       <use xlink:href="#DejaVuSans-34" x="95.410156"/>
      </g>
     </g>
    </g>
    <g id="xtick_12">
     <g id="line2d_43">
      <path d="M 671.613872 316.744 
L 671.613872 25.44 
" clip-path="url(#pc6459bd8fd)" style="fill: none; stroke: #b0b0b0; stroke-opacity: 0.18; stroke-width: 0.8; stroke-linecap: square"/>
     </g>
     <g id="line2d_44">
      <g>
       <use xlink:href="#mdff54241a9" x="671.613872" y="316.744" style="stroke: #000000; stroke-width: 0.8"/>
      </g>
     </g>
     <g id="text_26">
      <!-- 4.6 -->
      <g transform="translate(663.66231 331.342437) scale(0.1 -0.1)">
       <use xlink:href="#DejaVuSans-34"/>
       <use xlink:href="#DejaVuSans-2e" x="63.623047"/>
       <use xlink:href="#DejaVuSans-36" x="95.410156"/>
      </g>
     </g>
    </g>
    <g id="xtick_13">
     <g id="line2d_45">
      <path d="M 704.069931 316.744 
L 704.069931 25.44 
" clip-path="url(#pc6459bd8fd)" style="fill: none; stroke: #b0b0b0; stroke-opacity: 0.18; stroke-width: 0.8; stroke-linecap: square"/>
     </g>
     <g id="line2d_46">
      <g>
       <use xlink:href="#mdff54241a9" x="704.069931" y="316.744" style="stroke: #000000; stroke-width: 0.8"/>
      </g>
     </g>
     <g id="text_27">
      <!-- 4.8 -->
      <g transform="translate(696.118368 331.342437) scale(0.1 -0.1)">
       <use xlink:href="#DejaVuSans-34"/>
       <use xlink:href="#DejaVuSans-2e" x="63.623047"/>
       <use xlink:href="#DejaVuSans-38" x="95.410156"/>
      </g>
     </g>
    </g>
    <g id="xtick_14">
     <g id="line2d_47">
      <path d="M 736.52599 316.744 
L 736.52599 25.44 
" clip-path="url(#pc6459bd8fd)" style="fill: none; stroke: #b0b0b0; stroke-opacity: 0.18; stroke-width: 0.8; stroke-linecap: square"/>
     </g>
     <g id="line2d_48">
      <g>
       <use xlink:href="#mdff54241a9" x="736.52599" y="316.744" style="stroke: #000000; stroke-width: 0.8"/>
      </g>
     </g>
     <g id="text_28">
      <!-- 5.0 -->
      <g transform="translate(728.574427 331.342437) scale(0.1 -0.1)">
       <use xlink:href="#DejaVuSans-35"/>
       <use xlink:href="#DejaVuSans-2e" x="63.623047"/>
       <use xlink:href="#DejaVuSans-30" x="95.410156"/>
      </g>
     </g>
    </g>
    <g id="xtick_15">
     <g id="line2d_49">
      <path d="M 768.982048 316.744 
L 768.982048 25.44 
" clip-path="url(#pc6459bd8fd)" style="fill: none; stroke: #b0b0b0; stroke-opacity: 0.18; stroke-width: 0.8; stroke-linecap: square"/>
     </g>
     <g id="line2d_50">
      <g>
       <use xlink:href="#mdff54241a9" x="768.982048" y="316.744" style="stroke: #000000; stroke-width: 0.8"/>
      </g>
     </g>
     <g id="text_29">
      <!-- 5.2 -->
      <g transform="translate(761.030486 331.342437) scale(0.1 -0.1)">
       <use xlink:href="#DejaVuSans-35"/>
       <use xlink:href="#DejaVuSans-2e" x="63.623047"/>
       <use xlink:href="#DejaVuSans-32" x="95.410156"/>
      </g>
     </g>
    </g>
    <g id="xtick_16">
     <g id="line2d_51">
      <path d="M 801.438107 316.744 
L 801.438107 25.44 
" clip-path="url(#pc6459bd8fd)" style="fill: none; stroke: #b0b0b0; stroke-opacity: 0.18; stroke-width: 0.8; stroke-linecap: square"/>
     </g>
     <g id="line2d_52">
      <g>
       <use xlink:href="#mdff54241a9" x="801.438107" y="316.744" style="stroke: #000000; stroke-width: 0.8"/>
      </g>
     </g>
     <g id="text_30">
      <!-- 5.4 -->
      <g transform="translate(793.486545 331.342437) scale(0.1 -0.1)">
       <use xlink:href="#DejaVuSans-35"/>
       <use xlink:href="#DejaVuSans-2e" x="63.623047"/>
       <use xlink:href="#DejaVuSans-34" x="95.410156"/>
      </g>
     </g>
    </g>
    <g id="text_31">
     <!-- world x (m) -->
     <g transform="translate(646.217719 345.020562) scale(0.1 -0.1)">
      <use xlink:href="#DejaVuSans-77"/>
      <use xlink:href="#DejaVuSans-6f" x="81.787109"/>
      <use xlink:href="#DejaVuSans-72" x="142.96875"/>
      <use xlink:href="#DejaVuSans-6c" x="184.082031"/>
      <use xlink:href="#DejaVuSans-64" x="211.865234"/>
      <use xlink:href="#DejaVuSans-20" x="275.341797"/>
      <use xlink:href="#DejaVuSans-78" x="307.128906"/>
      <use xlink:href="#DejaVuSans-20" x="366.308594"/>
      <use xlink:href="#DejaVuSans-28" x="398.095703"/>
      <use xlink:href="#DejaVuSans-6d" x="437.109375"/>
      <use xlink:href="#DejaVuSans-29" x="534.521484"/>
     </g>
    </g>
   </g>
   <g id="matplotlib.axis_4">
    <g id="ytick_7">
     <g id="line2d_53">
      <path d="M 536.956032 305.147196 
L 812.832532 305.147196 
" clip-path="url(#pc6459bd8fd)" style="fill: none; stroke: #b0b0b0; stroke-opacity: 0.18; stroke-width: 0.8; stroke-linecap: square"/>
     </g>
     <g id="line2d_54">
      <g>
       <use xlink:href="#m1968907145" x="536.956032" y="305.147196" style="stroke: #000000; stroke-width: 0.8"/>
      </g>
     </g>
     <g id="text_32">
      <!-- −0.6 -->
      <g transform="translate(505.673219 308.946415) scale(0.1 -0.1)">
       <use xlink:href="#DejaVuSans-2212"/>
       <use xlink:href="#DejaVuSans-30" x="83.789062"/>
       <use xlink:href="#DejaVuSans-2e" x="147.412109"/>
       <use xlink:href="#DejaVuSans-36" x="179.199219"/>
      </g>
     </g>
    </g>
    <g id="ytick_8">
     <g id="line2d_55">
      <path d="M 536.956032 272.691137 
L 812.832532 272.691137 
" clip-path="url(#pc6459bd8fd)" style="fill: none; stroke: #b0b0b0; stroke-opacity: 0.18; stroke-width: 0.8; stroke-linecap: square"/>
     </g>
     <g id="line2d_56">
      <g>
       <use xlink:href="#m1968907145" x="536.956032" y="272.691137" style="stroke: #000000; stroke-width: 0.8"/>
      </g>
     </g>
     <g id="text_33">
      <!-- −0.4 -->
      <g transform="translate(505.673219 276.490356) scale(0.1 -0.1)">
       <use xlink:href="#DejaVuSans-2212"/>
       <use xlink:href="#DejaVuSans-30" x="83.789062"/>
       <use xlink:href="#DejaVuSans-2e" x="147.412109"/>
       <use xlink:href="#DejaVuSans-34" x="179.199219"/>
      </g>
     </g>
    </g>
    <g id="ytick_9">
     <g id="line2d_57">
      <path d="M 536.956032 240.235079 
L 812.832532 240.235079 
" clip-path="url(#pc6459bd8fd)" style="fill: none; stroke: #b0b0b0; stroke-opacity: 0.18; stroke-width: 0.8; stroke-linecap: square"/>
     </g>
     <g id="line2d_58">
      <g>
       <use xlink:href="#m1968907145" x="536.956032" y="240.235079" style="stroke: #000000; stroke-width: 0.8"/>
      </g>
     </g>
     <g id="text_34">
      <!-- −0.2 -->
      <g transform="translate(505.673219 244.034297) scale(0.1 -0.1)">
       <use xlink:href="#DejaVuSans-2212"/>
       <use xlink:href="#DejaVuSans-30" x="83.789062"/>
       <use xlink:href="#DejaVuSans-2e" x="147.412109"/>
       <use xlink:href="#DejaVuSans-32" x="179.199219"/>
      </g>
     </g>
    </g>
    <g id="ytick_10">
     <g id="line2d_59">
      <path d="M 536.956032 207.77902 
L 812.832532 207.77902 
" clip-path="url(#pc6459bd8fd)" style="fill: none; stroke: #b0b0b0; stroke-opacity: 0.18; stroke-width: 0.8; stroke-linecap: square"/>
     </g>
     <g id="line2d_60">
      <g>
       <use xlink:href="#m1968907145" x="536.956032" y="207.77902" style="stroke: #000000; stroke-width: 0.8"/>
      </g>
     </g>
     <g id="text_35">
      <!-- 0.0 -->
      <g transform="translate(514.052907 211.578238) scale(0.1 -0.1)">
       <use xlink:href="#DejaVuSans-30"/>
       <use xlink:href="#DejaVuSans-2e" x="63.623047"/>
       <use xlink:href="#DejaVuSans-30" x="95.410156"/>
      </g>
     </g>
    </g>
    <g id="ytick_11">
     <g id="line2d_61">
      <path d="M 536.956032 175.322961 
L 812.832532 175.322961 
" clip-path="url(#pc6459bd8fd)" style="fill: none; stroke: #b0b0b0; stroke-opacity: 0.18; stroke-width: 0.8; stroke-linecap: square"/>
     </g>
     <g id="line2d_62">
      <g>
       <use xlink:href="#m1968907145" x="536.956032" y="175.322961" style="stroke: #000000; stroke-width: 0.8"/>
      </g>
     </g>
     <g id="text_36">
      <!-- 0.2 -->
      <g transform="translate(514.052907 179.12218) scale(0.1 -0.1)">
       <use xlink:href="#DejaVuSans-30"/>
       <use xlink:href="#DejaVuSans-2e" x="63.623047"/>
       <use xlink:href="#DejaVuSans-32" x="95.410156"/>
      </g>
     </g>
    </g>
    <g id="ytick_12">
     <g id="line2d_63">
      <path d="M 536.956032 142.866902 
L 812.832532 142.866902 
" clip-path="url(#pc6459bd8fd)" style="fill: none; stroke: #b0b0b0; stroke-opacity: 0.18; stroke-width: 0.8; stroke-linecap: square"/>
     </g>
     <g id="line2d_64">
      <g>
       <use xlink:href="#m1968907145" x="536.956032" y="142.866902" style="stroke: #000000; stroke-width: 0.8"/>
      </g>
     </g>
     <g id="text_37">
      <!-- 0.4 -->
      <g transform="translate(514.052907 146.666121) scale(0.1 -0.1)">
       <use xlink:href="#DejaVuSans-30"/>
       <use xlink:href="#DejaVuSans-2e" x="63.623047"/>
       <use xlink:href="#DejaVuSans-34" x="95.410156"/>
      </g>
     </g>
    </g>
    <g id="ytick_13">
     <g id="line2d_65">
      <path d="M 536.956032 110.410843 
L 812.832532 110.410843 
" clip-path="url(#pc6459bd8fd)" style="fill: none; stroke: #b0b0b0; stroke-opacity: 0.18; stroke-width: 0.8; stroke-linecap: square"/>
     </g>
     <g id="line2d_66">
      <g>
       <use xlink:href="#m1968907145" x="536.956032" y="110.410843" style="stroke: #000000; stroke-width: 0.8"/>
      </g>
     </g>
     <g id="text_38">
      <!-- 0.6 -->
      <g transform="translate(514.052907 114.210062) scale(0.1 -0.1)">
       <use xlink:href="#DejaVuSans-30"/>
       <use xlink:href="#DejaVuSans-2e" x="63.623047"/>
       <use xlink:href="#DejaVuSans-36" x="95.410156"/>
      </g>
     </g>
    </g>
    <g id="ytick_14">
     <g id="line2d_67">
      <path d="M 536.956032 77.954784 
L 812.832532 77.954784 
" clip-path="url(#pc6459bd8fd)" style="fill: none; stroke: #b0b0b0; stroke-opacity: 0.18; stroke-width: 0.8; stroke-linecap: square"/>
     </g>
     <g id="line2d_68">
      <g>
       <use xlink:href="#m1968907145" x="536.956032" y="77.954784" style="stroke: #000000; stroke-width: 0.8"/>
      </g>
     </g>
     <g id="text_39">
      <!-- 0.8 -->
      <g transform="translate(514.052907 81.754003) scale(0.1 -0.1)">
       <use xlink:href="#DejaVuSans-30"/>
       <use xlink:href="#DejaVuSans-2e" x="63.623047"/>
       <use xlink:href="#DejaVuSans-38" x="95.410156"/>
      </g>
     </g>
    </g>
    <g id="ytick_15">
     <g id="line2d_69">
      <path d="M 536.956032 45.498726 
L 812.832532 45.498726 
" clip-path="url(#pc6459bd8fd)" style="fill: none; stroke: #b0b0b0; stroke-opacity: 0.18; stroke-width: 0.8; stroke-linecap: square"/>
     </g>
     <g id="line2d_70">
      <g>
       <use xlink:href="#m1968907145" x="536.956032" y="45.498726" style="stroke: #000000; stroke-width: 0.8"/>
      </g>
     </g>
     <g id="text_40">
      <!-- 1.0 -->
      <g transform="translate(514.052907 49.297944) scale(0.1 -0.1)">
       <use xlink:href="#DejaVuSans-31"/>
       <use xlink:href="#DejaVuSans-2e" x="63.623047"/>
       <use xlink:href="#DejaVuSans-30" x="95.410156"/>
      </g>
     </g>
    </g>
    <g id="text_41">
     <!-- world y (m) -->
     <g transform="translate(499.593532 199.768562) rotate(-90) scale(0.1 -0.1)">
      <use xlink:href="#DejaVuSans-77"/>
      <use xlink:href="#DejaVuSans-6f" x="81.787109"/>
      <use xlink:href="#DejaVuSans-72" x="142.96875"/>
      <use xlink:href="#DejaVuSans-6c" x="184.082031"/>
      <use xlink:href="#DejaVuSans-64" x="211.865234"/>
      <use xlink:href="#DejaVuSans-20" x="275.341797"/>
      <use xlink:href="#DejaVuSans-79" x="307.128906"/>
      <use xlink:href="#DejaVuSans-20" x="366.308594"/>
      <use xlink:href="#DejaVuSans-28" x="398.095703"/>
      <use xlink:href="#DejaVuSans-6d" x="437.109375"/>
      <use xlink:href="#DejaVuSans-29" x="534.521484"/>
     </g>
    </g>
   </g>
   <g id="patch_19">
    <path d="M 536.956032 316.744 
L 536.956032 25.44 
" style="fill: none; stroke: #000000; stroke-width: 0.8; stroke-linejoin: miter; stroke-linecap: square"/>
   </g>
   <g id="patch_20">
    <path d="M 812.832532 316.744 
L 812.832532 25.44 
" style="fill: none; stroke: #000000; stroke-width: 0.8; stroke-linejoin: miter; stroke-linecap: square"/>
   </g>
   <g id="patch_21">
    <path d="M 536.956032 316.744 
L 812.832532 316.744 
" style="fill: none; stroke: #000000; stroke-width: 0.8; stroke-linejoin: miter; stroke-linecap: square"/>
   </g>
   <g id="patch_22">
    <path d="M 536.956032 25.44 
L 812.832532 25.44 
" style="fill: none; stroke: #000000; stroke-width: 0.8; stroke-linejoin: miter; stroke-linecap: square"/>
   </g>
   <g id="text_42">
    <!-- Wheel gap: 0.0454 m; base: 0.0954 m -->
    <g transform="translate(542.473562 37.724752) scale(0.085 -0.085)">
     <defs>
      <path id="DejaVuSans-57" d="M 213 4666 
L 850 4666 
L 1831 722 
L 2809 4666 
L 3519 4666 
L 4500 722 
L 5478 4666 
L 6119 4666 
L 4947 0 
L 4153 0 
L 3169 4050 
L 2175 0 
L 1381 0 
L 213 4666 
z
" transform="scale(0.015625)"/>
      <path id="DejaVuSans-3b" d="M 750 3309 
L 1409 3309 
L 1409 2516 
L 750 2516 
L 750 3309 
z
M 750 794 
L 1409 794 
L 1409 256 
L 897 -744 
L 494 -744 
L 750 256 
L 750 794 
z
" transform="scale(0.015625)"/>
      <path id="DejaVuSans-39" d="M 703 97 
L 703 672 
Q 941 559 1184 500 
Q 1428 441 1663 441 
Q 2288 441 2617 861 
Q 2947 1281 2994 2138 
Q 2813 1869 2534 1725 
Q 2256 1581 1919 1581 
Q 1219 1581 811 2004 
Q 403 2428 403 3163 
Q 403 3881 828 4315 
Q 1253 4750 1959 4750 
Q 2769 4750 3195 4129 
Q 3622 3509 3622 2328 
Q 3622 1225 3098 567 
Q 2575 -91 1691 -91 
Q 1453 -91 1209 -44 
Q 966 3 703 97 
z
M 1959 2075 
Q 2384 2075 2632 2365 
Q 2881 2656 2881 3163 
Q 2881 3666 2632 3958 
Q 2384 4250 1959 4250 
Q 1534 4250 1286 3958 
Q 1038 3666 1038 3163 
Q 1038 2656 1286 2365 
Q 1534 2075 1959 2075 
z
" transform="scale(0.015625)"/>
     </defs>
     <use xlink:href="#DejaVuSans-57"/>
     <use xlink:href="#DejaVuSans-68" x="98.876953"/>
     <use xlink:href="#DejaVuSans-65" x="162.255859"/>
     <use xlink:href="#DejaVuSans-65" x="223.779297"/>
     <use xlink:href="#DejaVuSans-6c" x="285.302734"/>
     <use xlink:href="#DejaVuSans-20" x="313.085938"/>
     <use xlink:href="#DejaVuSans-67" x="344.873047"/>
     <use xlink:href="#DejaVuSans-61" x="408.349609"/>
     <use xlink:href="#DejaVuSans-70" x="469.628906"/>
     <use xlink:href="#DejaVuSans-3a" x="533.105469"/>
     <use xlink:href="#DejaVuSans-20" x="566.796875"/>
     <use xlink:href="#DejaVuSans-30" x="598.583984"/>
     <use xlink:href="#DejaVuSans-2e" x="662.207031"/>
     <use xlink:href="#DejaVuSans-30" x="693.994141"/>
     <use xlink:href="#DejaVuSans-34" x="757.617188"/>
     <use xlink:href="#DejaVuSans-35" x="821.240234"/>
     <use xlink:href="#DejaVuSans-34" x="884.863281"/>
     <use xlink:href="#DejaVuSans-20" x="948.486328"/>
     <use xlink:href="#DejaVuSans-6d" x="980.273438"/>
     <use xlink:href="#DejaVuSans-3b" x="1077.685547"/>
     <use xlink:href="#DejaVuSans-20" x="1111.376953"/>
     <use xlink:href="#DejaVuSans-62" x="1143.164062"/>
     <use xlink:href="#DejaVuSans-61" x="1206.640625"/>
     <use xlink:href="#DejaVuSans-73" x="1267.919922"/>
     <use xlink:href="#DejaVuSans-65" x="1320.019531"/>
     <use xlink:href="#DejaVuSans-3a" x="1381.542969"/>
     <use xlink:href="#DejaVuSans-20" x="1415.234375"/>
     <use xlink:href="#DejaVuSans-30" x="1447.021484"/>
     <use xlink:href="#DejaVuSans-2e" x="1510.644531"/>
     <use xlink:href="#DejaVuSans-30" x="1542.431641"/>
     <use xlink:href="#DejaVuSans-39" x="1606.054688"/>
     <use xlink:href="#DejaVuSans-35" x="1669.677734"/>
     <use xlink:href="#DejaVuSans-34" x="1733.300781"/>
     <use xlink:href="#DejaVuSans-20" x="1796.923828"/>
     <use xlink:href="#DejaVuSans-6d" x="1828.710938"/>
    </g>
    <!-- Prior 0.2 s: pose deviation 0 m, max |command| 0 -->
    <g transform="translate(542.473562 47.287517) scale(0.085 -0.085)">
     <defs>
      <path id="DejaVuSans-50" d="M 1259 4147 
L 1259 2394 
L 2053 2394 
Q 2494 2394 2734 2622 
Q 2975 2850 2975 3272 
Q 2975 3691 2734 3919 
Q 2494 4147 2053 4147 
L 1259 4147 
z
M 628 4666 
L 2053 4666 
Q 2838 4666 3239 4311 
Q 3641 3956 3641 3272 
Q 3641 2581 3239 2228 
Q 2838 1875 2053 1875 
L 1259 1875 
L 1259 0 
L 628 0 
L 628 4666 
z
" transform="scale(0.015625)"/>
      <path id="DejaVuSans-7c" d="M 1344 4891 
L 1344 -1509 
L 813 -1509 
L 813 4891 
L 1344 4891 
z
" transform="scale(0.015625)"/>
     </defs>
     <use xlink:href="#DejaVuSans-50"/>
     <use xlink:href="#DejaVuSans-72" x="58.552734"/>
     <use xlink:href="#DejaVuSans-69" x="99.666016"/>
     <use xlink:href="#DejaVuSans-6f" x="127.449219"/>
     <use xlink:href="#DejaVuSans-72" x="188.630859"/>
     <use xlink:href="#DejaVuSans-20" x="229.744141"/>
     <use xlink:href="#DejaVuSans-30" x="261.53125"/>
     <use xlink:href="#DejaVuSans-2e" x="325.154297"/>
     <use xlink:href="#DejaVuSans-32" x="356.941406"/>
     <use xlink:href="#DejaVuSans-20" x="420.564453"/>
     <use xlink:href="#DejaVuSans-73" x="452.351562"/>
     <use xlink:href="#DejaVuSans-3a" x="504.451172"/>
     <use xlink:href="#DejaVuSans-20" x="538.142578"/>
     <use xlink:href="#DejaVuSans-70" x="569.929688"/>
     <use xlink:href="#DejaVuSans-6f" x="633.40625"/>
     <use xlink:href="#DejaVuSans-73" x="694.587891"/>
     <use xlink:href="#DejaVuSans-65" x="746.6875"/>
     <use xlink:href="#DejaVuSans-20" x="808.210938"/>
     <use xlink:href="#DejaVuSans-64" x="839.998047"/>
     <use xlink:href="#DejaVuSans-65" x="903.474609"/>
     <use xlink:href="#DejaVuSans-76" x="964.998047"/>
     <use xlink:href="#DejaVuSans-69" x="1024.177734"/>
     <use xlink:href="#DejaVuSans-61" x="1051.960938"/>
     <use xlink:href="#DejaVuSans-74" x="1113.240234"/>
     <use xlink:href="#DejaVuSans-69" x="1152.449219"/>
     <use xlink:href="#DejaVuSans-6f" x="1180.232422"/>
     <use xlink:href="#DejaVuSans-6e" x="1241.414062"/>
     <use xlink:href="#DejaVuSans-20" x="1304.792969"/>
     <use xlink:href="#DejaVuSans-30" x="1336.580078"/>
     <use xlink:href="#DejaVuSans-20" x="1400.203125"/>
     <use xlink:href="#DejaVuSans-6d" x="1431.990234"/>
     <use xlink:href="#DejaVuSans-2c" x="1529.402344"/>
     <use xlink:href="#DejaVuSans-20" x="1561.189453"/>
     <use xlink:href="#DejaVuSans-6d" x="1592.976562"/>
     <use xlink:href="#DejaVuSans-61" x="1690.388672"/>
     <use xlink:href="#DejaVuSans-78" x="1751.667969"/>
     <use xlink:href="#DejaVuSans-20" x="1810.847656"/>
     <use xlink:href="#DejaVuSans-7c" x="1842.634766"/>
     <use xlink:href="#DejaVuSans-63" x="1876.326172"/>
     <use xlink:href="#DejaVuSans-6f" x="1931.306641"/>
     <use xlink:href="#DejaVuSans-6d" x="1992.488281"/>
     <use xlink:href="#DejaVuSans-6d" x="2089.900391"/>
     <use xlink:href="#DejaVuSans-61" x="2187.3125"/>
     <use xlink:href="#DejaVuSans-6e" x="2248.591797"/>
     <use xlink:href="#DejaVuSans-64" x="2311.970703"/>
     <use xlink:href="#DejaVuSans-7c" x="2375.447266"/>
     <use xlink:href="#DejaVuSans-20" x="2409.138672"/>
     <use xlink:href="#DejaVuSans-30" x="2440.925781"/>
    </g>
    <!-- Latest guard: dynamic_collision, TTC=0 -->
    <g transform="translate(542.473562 57.042064) scale(0.085 -0.085)">
     <defs>
      <path id="DejaVuSans-5f" d="M 3263 -1063 
L 3263 -1509 
L -63 -1509 
L -63 -1063 
L 3263 -1063 
z
" transform="scale(0.015625)"/>
      <path id="DejaVuSans-54" d="M -19 4666 
L 3928 4666 
L 3928 4134 
L 2272 4134 
L 2272 0 
L 1638 0 
L 1638 4134 
L -19 4134 
L -19 4666 
z
" transform="scale(0.015625)"/>
      <path id="DejaVuSans-43" d="M 4122 4306 
L 4122 3641 
Q 3803 3938 3442 4084 
Q 3081 4231 2675 4231 
Q 1875 4231 1450 3742 
Q 1025 3253 1025 2328 
Q 1025 1406 1450 917 
Q 1875 428 2675 428 
Q 3081 428 3442 575 
Q 3803 722 4122 1019 
L 4122 359 
Q 3791 134 3420 21 
Q 3050 -91 2638 -91 
Q 1578 -91 968 557 
Q 359 1206 359 2328 
Q 359 3453 968 4101 
Q 1578 4750 2638 4750 
Q 3056 4750 3426 4639 
Q 3797 4528 4122 4306 
z
" transform="scale(0.015625)"/>
      <path id="DejaVuSans-3d" d="M 678 2906 
L 4684 2906 
L 4684 2381 
L 678 2381 
L 678 2906 
z
M 678 1631 
L 4684 1631 
L 4684 1100 
L 678 1100 
L 678 1631 
z
" transform="scale(0.015625)"/>
     </defs>
     <use xlink:href="#DejaVuSans-4c"/>
     <use xlink:href="#DejaVuSans-61" x="55.712891"/>
     <use xlink:href="#DejaVuSans-74" x="116.992188"/>
     <use xlink:href="#DejaVuSans-65" x="156.201172"/>
     <use xlink:href="#DejaVuSans-73" x="217.724609"/>
     <use xlink:href="#DejaVuSans-74" x="269.824219"/>
     <use xlink:href="#DejaVuSans-20" x="309.033203"/>
     <use xlink:href="#DejaVuSans-67" x="340.820312"/>
     <use xlink:href="#DejaVuSans-75" x="404.296875"/>
     <use xlink:href="#DejaVuSans-61" x="467.675781"/>
     <use xlink:href="#DejaVuSans-72" x="528.955078"/>
     <use xlink:href="#DejaVuSans-64" x="568.318359"/>
     <use xlink:href="#DejaVuSans-3a" x="631.794922"/>
     <use xlink:href="#DejaVuSans-20" x="665.486328"/>
     <use xlink:href="#DejaVuSans-64" x="697.273438"/>
     <use xlink:href="#DejaVuSans-79" x="760.75"/>
     <use xlink:href="#DejaVuSans-6e" x="819.929688"/>
     <use xlink:href="#DejaVuSans-61" x="883.308594"/>
     <use xlink:href="#DejaVuSans-6d" x="944.587891"/>
     <use xlink:href="#DejaVuSans-69" x="1042"/>
     <use xlink:href="#DejaVuSans-63" x="1069.783203"/>
     <use xlink:href="#DejaVuSans-5f" x="1124.763672"/>
     <use xlink:href="#DejaVuSans-63" x="1174.763672"/>
     <use xlink:href="#DejaVuSans-6f" x="1229.744141"/>
     <use xlink:href="#DejaVuSans-6c" x="1290.925781"/>
     <use xlink:href="#DejaVuSans-6c" x="1318.708984"/>
     <use xlink:href="#DejaVuSans-69" x="1346.492188"/>
     <use xlink:href="#DejaVuSans-73" x="1374.275391"/>
     <use xlink:href="#DejaVuSans-69" x="1426.375"/>
     <use xlink:href="#DejaVuSans-6f" x="1454.158203"/>
     <use xlink:href="#DejaVuSans-6e" x="1515.339844"/>
     <use xlink:href="#DejaVuSans-2c" x="1578.71875"/>
     <use xlink:href="#DejaVuSans-20" x="1610.505859"/>
     <use xlink:href="#DejaVuSans-54" x="1642.292969"/>
     <use xlink:href="#DejaVuSans-54" x="1701.626953"/>
     <use xlink:href="#DejaVuSans-43" x="1756.835938"/>
     <use xlink:href="#DejaVuSans-3d" x="1826.660156"/>
     <use xlink:href="#DejaVuSans-30" x="1910.449219"/>
    </g>
   </g>
   <g id="text_43">
    <!-- First full mechanical gap &lt; 0.05 m, t=47.692 s -->
    <g transform="translate(546.110922 19.44) scale(0.11 -0.11)">
     <defs>
      <path id="DejaVuSans-3c" d="M 4684 3150 
L 1459 2003 
L 4684 863 
L 4684 294 
L 678 1747 
L 678 2266 
L 4684 3719 
L 4684 3150 
z
" transform="scale(0.015625)"/>
      <path id="DejaVuSans-37" d="M 525 4666 
L 3525 4666 
L 3525 4397 
L 1831 0 
L 1172 0 
L 2766 4134 
L 525 4134 
L 525 4666 
z
" transform="scale(0.015625)"/>
     </defs>
     <use xlink:href="#DejaVuSans-46"/>
     <use xlink:href="#DejaVuSans-69" x="50.269531"/>
     <use xlink:href="#DejaVuSans-72" x="78.052734"/>
     <use xlink:href="#DejaVuSans-73" x="119.166016"/>
     <use xlink:href="#DejaVuSans-74" x="171.265625"/>
     <use xlink:href="#DejaVuSans-20" x="210.474609"/>
     <use xlink:href="#DejaVuSans-66" x="242.261719"/>
     <use xlink:href="#DejaVuSans-75" x="277.466797"/>
     <use xlink:href="#DejaVuSans-6c" x="340.845703"/>
     <use xlink:href="#DejaVuSans-6c" x="368.628906"/>
     <use xlink:href="#DejaVuSans-20" x="396.412109"/>
     <use xlink:href="#DejaVuSans-6d" x="428.199219"/>
     <use xlink:href="#DejaVuSans-65" x="525.611328"/>
     <use xlink:href="#DejaVuSans-63" x="587.134766"/>
     <use xlink:href="#DejaVuSans-68" x="642.115234"/>
     <use xlink:href="#DejaVuSans-61" x="705.494141"/>
     <use xlink:href="#DejaVuSans-6e" x="766.773438"/>
     <use xlink:href="#DejaVuSans-69" x="830.152344"/>
     <use xlink:href="#DejaVuSans-63" x="857.935547"/>
     <use xlink:href="#DejaVuSans-61" x="912.916016"/>
     <use xlink:href="#DejaVuSans-6c" x="974.195312"/>
     <use xlink:href="#DejaVuSans-20" x="1001.978516"/>
     <use xlink:href="#DejaVuSans-67" x="1033.765625"/>
     <use xlink:href="#DejaVuSans-61" x="1097.242188"/>
     <use xlink:href="#DejaVuSans-70" x="1158.521484"/>
     <use xlink:href="#DejaVuSans-20" x="1221.998047"/>
     <use xlink:href="#DejaVuSans-3c" x="1253.785156"/>
     <use xlink:href="#DejaVuSans-20" x="1337.574219"/>
     <use xlink:href="#DejaVuSans-30" x="1369.361328"/>
     <use xlink:href="#DejaVuSans-2e" x="1432.984375"/>
     <use xlink:href="#DejaVuSans-30" x="1464.771484"/>
     <use xlink:href="#DejaVuSans-35" x="1528.394531"/>
     <use xlink:href="#DejaVuSans-20" x="1592.017578"/>
     <use xlink:href="#DejaVuSans-6d" x="1623.804688"/>
     <use xlink:href="#DejaVuSans-2c" x="1721.216797"/>
     <use xlink:href="#DejaVuSans-20" x="1753.003906"/>
     <use xlink:href="#DejaVuSans-74" x="1784.791016"/>
     <use xlink:href="#DejaVuSans-3d" x="1824"/>
     <use xlink:href="#DejaVuSans-34" x="1907.789062"/>
     <use xlink:href="#DejaVuSans-37" x="1971.412109"/>
     <use xlink:href="#DejaVuSans-2e" x="2035.035156"/>
     <use xlink:href="#DejaVuSans-36" x="2066.822266"/>
     <use xlink:href="#DejaVuSans-39" x="2130.445312"/>
     <use xlink:href="#DejaVuSans-32" x="2194.068359"/>
     <use xlink:href="#DejaVuSans-20" x="2257.691406"/>
     <use xlink:href="#DejaVuSans-73" x="2289.478516"/>
    </g>
   </g>
   <g id="legend_2">
    <g id="patch_23">
     <path d="M 542.136032 313.044 
L 700.618594 313.044 
Q 702.098594 313.044 702.098594 311.564 
L 702.098594 257.994937 
Q 702.098594 256.514937 700.618594 256.514937 
L 542.136032 256.514937 
Q 540.656032 256.514937 540.656032 257.994937 
L 540.656032 311.564 
Q 540.656032 313.044 542.136032 313.044 
z
" style="fill: #ffffff; opacity: 0.9; stroke: #cccccc; stroke-linejoin: miter"/>
    </g>
    <g id="patch_24">
     <path d="M 543.616032 265.097781 
L 558.416032 265.097781 
L 558.416032 259.917781 
L 543.616032 259.917781 
L 543.616032 265.097781 
z
" style="fill: none; stroke-dasharray: 3.7,1.6; stroke-dashoffset: 0; stroke: #1d769d; stroke-linejoin: miter"/>
    </g>
    <g id="text_44">
     <!-- Configured padded envelope -->
     <g transform="translate(564.336032 265.097781) scale(0.074 -0.074)">
      <use xlink:href="#DejaVuSans-43"/>
      <use xlink:href="#DejaVuSans-6f" x="69.824219"/>
      <use xlink:href="#DejaVuSans-6e" x="131.005859"/>
      <use xlink:href="#DejaVuSans-66" x="194.384766"/>
      <use xlink:href="#DejaVuSans-69" x="229.589844"/>
      <use xlink:href="#DejaVuSans-67" x="257.373047"/>
      <use xlink:href="#DejaVuSans-75" x="320.849609"/>
      <use xlink:href="#DejaVuSans-72" x="384.228516"/>
      <use xlink:href="#DejaVuSans-65" x="423.091797"/>
      <use xlink:href="#DejaVuSans-64" x="484.615234"/>
      <use xlink:href="#DejaVuSans-20" x="548.091797"/>
      <use xlink:href="#DejaVuSans-70" x="579.878906"/>
      <use xlink:href="#DejaVuSans-61" x="643.355469"/>
      <use xlink:href="#DejaVuSans-64" x="704.634766"/>
      <use xlink:href="#DejaVuSans-64" x="768.111328"/>
      <use xlink:href="#DejaVuSans-65" x="831.587891"/>
      <use xlink:href="#DejaVuSans-64" x="893.111328"/>
      <use xlink:href="#DejaVuSans-20" x="956.587891"/>
      <use xlink:href="#DejaVuSans-65" x="988.375"/>
      <use xlink:href="#DejaVuSans-6e" x="1049.898438"/>
      <use xlink:href="#DejaVuSans-76" x="1113.277344"/>
      <use xlink:href="#DejaVuSans-65" x="1172.457031"/>
      <use xlink:href="#DejaVuSans-6c" x="1233.980469"/>
      <use xlink:href="#DejaVuSans-6f" x="1261.763672"/>
      <use xlink:href="#DejaVuSans-70" x="1322.945312"/>
      <use xlink:href="#DejaVuSans-65" x="1386.421875"/>
     </g>
    </g>
    <g id="patch_25">
     <path d="M 543.616032 275.959594 
L 558.416032 275.959594 
L 558.416032 270.779594 
L 543.616032 270.779594 
z
" style="fill: #74a6c0; opacity: 0.65; stroke: #286e9d; stroke-linejoin: miter"/>
    </g>
    <g id="text_45">
     <!-- Actual base box (truth) -->
     <g transform="translate(564.336032 275.959594) scale(0.074 -0.074)">
      <use xlink:href="#DejaVuSans-41"/>
      <use xlink:href="#DejaVuSans-63" x="66.658203"/>
      <use xlink:href="#DejaVuSans-74" x="121.638672"/>
      <use xlink:href="#DejaVuSans-75" x="160.847656"/>
      <use xlink:href="#DejaVuSans-61" x="224.226562"/>
      <use xlink:href="#DejaVuSans-6c" x="285.505859"/>
      <use xlink:href="#DejaVuSans-20" x="313.289062"/>
      <use xlink:href="#DejaVuSans-62" x="345.076172"/>
      <use xlink:href="#DejaVuSans-61" x="408.552734"/>
      <use xlink:href="#DejaVuSans-73" x="469.832031"/>
      <use xlink:href="#DejaVuSans-65" x="521.931641"/>
      <use xlink:href="#DejaVuSans-20" x="583.455078"/>
      <use xlink:href="#DejaVuSans-62" x="615.242188"/>
      <use xlink:href="#DejaVuSans-6f" x="678.71875"/>
      <use xlink:href="#DejaVuSans-78" x="736.775391"/>
      <use xlink:href="#DejaVuSans-20" x="795.955078"/>
      <use xlink:href="#DejaVuSans-28" x="827.742188"/>
      <use xlink:href="#DejaVuSans-74" x="866.755859"/>
      <use xlink:href="#DejaVuSans-72" x="905.964844"/>
      <use xlink:href="#DejaVuSans-75" x="947.078125"/>
      <use xlink:href="#DejaVuSans-74" x="1010.457031"/>
      <use xlink:href="#DejaVuSans-68" x="1049.666016"/>
      <use xlink:href="#DejaVuSans-29" x="1113.044922"/>
     </g>
    </g>
    <g id="patch_26">
     <path d="M 543.616032 286.821406 
L 558.416032 286.821406 
L 558.416032 281.641406 
L 543.616032 281.641406 
L 543.616032 286.821406 
z
" style="fill: none; stroke: #4b5358; stroke-linejoin: miter"/>
    </g>
    <g id="text_46">
     <!-- Full wheel projections -->
     <g transform="translate(564.336032 286.821406) scale(0.074 -0.074)">
      <defs>
       <path id="DejaVuSans-6a" d="M 603 3500 
L 1178 3500 
L 1178 -63 
Q 1178 -731 923 -1031 
Q 669 -1331 103 -1331 
L -116 -1331 
L -116 -844 
L 38 -844 
Q 366 -844 484 -692 
Q 603 -541 603 -63 
L 603 3500 
z
M 603 4863 
L 1178 4863 
L 1178 4134 
L 603 4134 
L 603 4863 
z
" transform="scale(0.015625)"/>
      </defs>
      <use xlink:href="#DejaVuSans-46"/>
      <use xlink:href="#DejaVuSans-75" x="52.019531"/>
      <use xlink:href="#DejaVuSans-6c" x="115.398438"/>
      <use xlink:href="#DejaVuSans-6c" x="143.181641"/>
      <use xlink:href="#DejaVuSans-20" x="170.964844"/>
      <use xlink:href="#DejaVuSans-77" x="202.751953"/>
      <use xlink:href="#DejaVuSans-68" x="284.539062"/>
      <use xlink:href="#DejaVuSans-65" x="347.917969"/>
      <use xlink:href="#DejaVuSans-65" x="409.441406"/>
      <use xlink:href="#DejaVuSans-6c" x="470.964844"/>
      <use xlink:href="#DejaVuSans-20" x="498.748047"/>
      <use xlink:href="#DejaVuSans-70" x="530.535156"/>
      <use xlink:href="#DejaVuSans-72" x="594.011719"/>
      <use xlink:href="#DejaVuSans-6f" x="632.875"/>
      <use xlink:href="#DejaVuSans-6a" x="694.056641"/>
      <use xlink:href="#DejaVuSans-65" x="721.839844"/>
      <use xlink:href="#DejaVuSans-63" x="783.363281"/>
      <use xlink:href="#DejaVuSans-74" x="838.34375"/>
      <use xlink:href="#DejaVuSans-69" x="877.552734"/>
      <use xlink:href="#DejaVuSans-6f" x="905.335938"/>
      <use xlink:href="#DejaVuSans-6e" x="966.517578"/>
      <use xlink:href="#DejaVuSans-73" x="1029.896484"/>
     </g>
    </g>
    <g id="patch_27">
     <path d="M 543.616032 297.683219 
L 558.416032 297.683219 
L 558.416032 292.503219 
L 543.616032 292.503219 
z
" style="fill: #d4785e; opacity: 0.65; stroke: #a73d2a; stroke-linejoin: miter"/>
    </g>
    <g id="text_47">
     <!-- Actor box at event (truth) -->
     <g transform="translate(564.336032 297.683219) scale(0.074 -0.074)">
      <use xlink:href="#DejaVuSans-41"/>
      <use xlink:href="#DejaVuSans-63" x="66.658203"/>
      <use xlink:href="#DejaVuSans-74" x="121.638672"/>
      <use xlink:href="#DejaVuSans-6f" x="160.847656"/>
      <use xlink:href="#DejaVuSans-72" x="222.029297"/>
      <use xlink:href="#DejaVuSans-20" x="263.142578"/>
      <use xlink:href="#DejaVuSans-62" x="294.929688"/>
      <use xlink:href="#DejaVuSans-6f" x="358.40625"/>
      <use xlink:href="#DejaVuSans-78" x="416.462891"/>
      <use xlink:href="#DejaVuSans-20" x="475.642578"/>
      <use xlink:href="#DejaVuSans-61" x="507.429688"/>
      <use xlink:href="#DejaVuSans-74" x="568.708984"/>
      <use xlink:href="#DejaVuSans-20" x="607.917969"/>
      <use xlink:href="#DejaVuSans-65" x="639.705078"/>
      <use xlink:href="#DejaVuSans-76" x="701.228516"/>
      <use xlink:href="#DejaVuSans-65" x="760.408203"/>
      <use xlink:href="#DejaVuSans-6e" x="821.931641"/>
      <use xlink:href="#DejaVuSans-74" x="885.310547"/>
      <use xlink:href="#DejaVuSans-20" x="924.519531"/>
      <use xlink:href="#DejaVuSans-28" x="956.306641"/>
      <use xlink:href="#DejaVuSans-74" x="995.320312"/>
      <use xlink:href="#DejaVuSans-72" x="1034.529297"/>
      <use xlink:href="#DejaVuSans-75" x="1075.642578"/>
      <use xlink:href="#DejaVuSans-74" x="1139.021484"/>
      <use xlink:href="#DejaVuSans-68" x="1178.230469"/>
      <use xlink:href="#DejaVuSans-29" x="1241.609375"/>
     </g>
    </g>
    <g id="patch_28">
     <path d="M 543.616032 308.545031 
L 558.416032 308.545031 
L 558.416032 303.365031 
L 543.616032 303.365031 
L 543.616032 308.545031 
z
" style="fill: none; stroke: #7f48ac; stroke-width: 1.5; stroke-linejoin: miter"/>
    </g>
    <g id="text_48">
     <!-- Source-matched CV disk at 47.673 s -->
     <g transform="translate(564.336032 308.545031) scale(0.074 -0.074)">
      <defs>
       <path id="DejaVuSans-2d" d="M 313 2009 
L 1997 2009 
L 1997 1497 
L 313 1497 
L 313 2009 
z
" transform="scale(0.015625)"/>
       <path id="DejaVuSans-56" d="M 1831 0 
L 50 4666 
L 709 4666 
L 2188 738 
L 3669 4666 
L 4325 4666 
L 2547 0 
L 1831 0 
z
" transform="scale(0.015625)"/>
      </defs>
      <use xlink:href="#DejaVuSans-53"/>
      <use xlink:href="#DejaVuSans-6f" x="63.476562"/>
      <use xlink:href="#DejaVuSans-75" x="124.658203"/>
      <use xlink:href="#DejaVuSans-72" x="188.037109"/>
      <use xlink:href="#DejaVuSans-63" x="226.900391"/>
      <use xlink:href="#DejaVuSans-65" x="281.880859"/>
      <use xlink:href="#DejaVuSans-2d" x="343.404297"/>
      <use xlink:href="#DejaVuSans-6d" x="379.488281"/>
      <use xlink:href="#DejaVuSans-61" x="476.900391"/>
      <use xlink:href="#DejaVuSans-74" x="538.179688"/>
      <use xlink:href="#DejaVuSans-63" x="577.388672"/>
      <use xlink:href="#DejaVuSans-68" x="632.369141"/>
      <use xlink:href="#DejaVuSans-65" x="695.748047"/>
      <use xlink:href="#DejaVuSans-64" x="757.271484"/>
      <use xlink:href="#DejaVuSans-20" x="820.748047"/>
      <use xlink:href="#DejaVuSans-43" x="852.535156"/>
      <use xlink:href="#DejaVuSans-56" x="922.359375"/>
      <use xlink:href="#DejaVuSans-20" x="990.767578"/>
      <use xlink:href="#DejaVuSans-64" x="1022.554688"/>
      <use xlink:href="#DejaVuSans-69" x="1086.03125"/>
      <use xlink:href="#DejaVuSans-73" x="1113.814453"/>
      <use xlink:href="#DejaVuSans-6b" x="1165.914062"/>
      <use xlink:href="#DejaVuSans-20" x="1223.824219"/>
      <use xlink:href="#DejaVuSans-61" x="1255.611328"/>
      <use xlink:href="#DejaVuSans-74" x="1316.890625"/>
      <use xlink:href="#DejaVuSans-20" x="1356.099609"/>
      <use xlink:href="#DejaVuSans-34" x="1387.886719"/>
      <use xlink:href="#DejaVuSans-37" x="1451.509766"/>
      <use xlink:href="#DejaVuSans-2e" x="1515.132812"/>
      <use xlink:href="#DejaVuSans-36" x="1546.919922"/>
      <use xlink:href="#DejaVuSans-37" x="1610.542969"/>
      <use xlink:href="#DejaVuSans-33" x="1674.166016"/>
      <use xlink:href="#DejaVuSans-20" x="1737.789062"/>
      <use xlink:href="#DejaVuSans-73" x="1769.576172"/>
     </g>
    </g>
   </g>
  </g>
  <g id="text_49">
   <!-- SDF planar projections and physical truth are offline labels. CV disk is from the reported guard epoch; no native SG / coverage claim. -->
   <g transform="translate(172.66125 372.06) scale(0.08 -0.08)">
    <use xlink:href="#DejaVuSans-53"/>
    <use xlink:href="#DejaVuSans-44" x="63.476562"/>
    <use xlink:href="#DejaVuSans-46" x="140.478516"/>
    <use xlink:href="#DejaVuSans-20" x="197.998047"/>
    <use xlink:href="#DejaVuSans-70" x="229.785156"/>
    <use xlink:href="#DejaVuSans-6c" x="293.261719"/>
    <use xlink:href="#DejaVuSans-61" x="321.044922"/>
    <use xlink:href="#DejaVuSans-6e" x="382.324219"/>
    <use xlink:href="#DejaVuSans-61" x="445.703125"/>
    <use xlink:href="#DejaVuSans-72" x="506.982422"/>
    <use xlink:href="#DejaVuSans-20" x="548.095703"/>
    <use xlink:href="#DejaVuSans-70" x="579.882812"/>
    <use xlink:href="#DejaVuSans-72" x="643.359375"/>
    <use xlink:href="#DejaVuSans-6f" x="682.222656"/>
    <use xlink:href="#DejaVuSans-6a" x="743.404297"/>
    <use xlink:href="#DejaVuSans-65" x="771.1875"/>
    <use xlink:href="#DejaVuSans-63" x="832.710938"/>
    <use xlink:href="#DejaVuSans-74" x="887.691406"/>
    <use xlink:href="#DejaVuSans-69" x="926.900391"/>
    <use xlink:href="#DejaVuSans-6f" x="954.683594"/>
    <use xlink:href="#DejaVuSans-6e" x="1015.865234"/>
    <use xlink:href="#DejaVuSans-73" x="1079.244141"/>
    <use xlink:href="#DejaVuSans-20" x="1131.34375"/>
    <use xlink:href="#DejaVuSans-61" x="1163.130859"/>
    <use xlink:href="#DejaVuSans-6e" x="1224.410156"/>
    <use xlink:href="#DejaVuSans-64" x="1287.789062"/>
    <use xlink:href="#DejaVuSans-20" x="1351.265625"/>
    <use xlink:href="#DejaVuSans-70" x="1383.052734"/>
    <use xlink:href="#DejaVuSans-68" x="1446.529297"/>
    <use xlink:href="#DejaVuSans-79" x="1509.908203"/>
    <use xlink:href="#DejaVuSans-73" x="1569.087891"/>
    <use xlink:href="#DejaVuSans-69" x="1621.1875"/>
    <use xlink:href="#DejaVuSans-63" x="1648.970703"/>
    <use xlink:href="#DejaVuSans-61" x="1703.951172"/>
    <use xlink:href="#DejaVuSans-6c" x="1765.230469"/>
    <use xlink:href="#DejaVuSans-20" x="1793.013672"/>
    <use xlink:href="#DejaVuSans-74" x="1824.800781"/>
    <use xlink:href="#DejaVuSans-72" x="1864.009766"/>
    <use xlink:href="#DejaVuSans-75" x="1905.123047"/>
    <use xlink:href="#DejaVuSans-74" x="1968.501953"/>
    <use xlink:href="#DejaVuSans-68" x="2007.710938"/>
    <use xlink:href="#DejaVuSans-20" x="2071.089844"/>
    <use xlink:href="#DejaVuSans-61" x="2102.876953"/>
    <use xlink:href="#DejaVuSans-72" x="2164.15625"/>
    <use xlink:href="#DejaVuSans-65" x="2203.019531"/>
    <use xlink:href="#DejaVuSans-20" x="2264.542969"/>
    <use xlink:href="#DejaVuSans-6f" x="2296.330078"/>
    <use xlink:href="#DejaVuSans-66" x="2357.511719"/>
    <use xlink:href="#DejaVuSans-66" x="2392.716797"/>
    <use xlink:href="#DejaVuSans-6c" x="2427.921875"/>
    <use xlink:href="#DejaVuSans-69" x="2455.705078"/>
    <use xlink:href="#DejaVuSans-6e" x="2483.488281"/>
    <use xlink:href="#DejaVuSans-65" x="2546.867188"/>
    <use xlink:href="#DejaVuSans-20" x="2608.390625"/>
    <use xlink:href="#DejaVuSans-6c" x="2640.177734"/>
    <use xlink:href="#DejaVuSans-61" x="2667.960938"/>
    <use xlink:href="#DejaVuSans-62" x="2729.240234"/>
    <use xlink:href="#DejaVuSans-65" x="2792.716797"/>
    <use xlink:href="#DejaVuSans-6c" x="2854.240234"/>
    <use xlink:href="#DejaVuSans-73" x="2882.023438"/>
    <use xlink:href="#DejaVuSans-2e" x="2934.123047"/>
    <use xlink:href="#DejaVuSans-20" x="2965.910156"/>
    <use xlink:href="#DejaVuSans-43" x="2997.697266"/>
    <use xlink:href="#DejaVuSans-56" x="3067.521484"/>
    <use xlink:href="#DejaVuSans-20" x="3135.929688"/>
    <use xlink:href="#DejaVuSans-64" x="3167.716797"/>
    <use xlink:href="#DejaVuSans-69" x="3231.193359"/>
    <use xlink:href="#DejaVuSans-73" x="3258.976562"/>
    <use xlink:href="#DejaVuSans-6b" x="3311.076172"/>
    <use xlink:href="#DejaVuSans-20" x="3368.986328"/>
    <use xlink:href="#DejaVuSans-69" x="3400.773438"/>
    <use xlink:href="#DejaVuSans-73" x="3428.556641"/>
    <use xlink:href="#DejaVuSans-20" x="3480.65625"/>
    <use xlink:href="#DejaVuSans-66" x="3512.443359"/>
    <use xlink:href="#DejaVuSans-72" x="3547.648438"/>
    <use xlink:href="#DejaVuSans-6f" x="3586.511719"/>
    <use xlink:href="#DejaVuSans-6d" x="3647.693359"/>
    <use xlink:href="#DejaVuSans-20" x="3745.105469"/>
    <use xlink:href="#DejaVuSans-74" x="3776.892578"/>
    <use xlink:href="#DejaVuSans-68" x="3816.101562"/>
    <use xlink:href="#DejaVuSans-65" x="3879.480469"/>
    <use xlink:href="#DejaVuSans-20" x="3941.003906"/>
    <use xlink:href="#DejaVuSans-72" x="3972.791016"/>
    <use xlink:href="#DejaVuSans-65" x="4011.654297"/>
    <use xlink:href="#DejaVuSans-70" x="4073.177734"/>
    <use xlink:href="#DejaVuSans-6f" x="4136.654297"/>
    <use xlink:href="#DejaVuSans-72" x="4197.835938"/>
    <use xlink:href="#DejaVuSans-74" x="4238.949219"/>
    <use xlink:href="#DejaVuSans-65" x="4278.158203"/>
    <use xlink:href="#DejaVuSans-64" x="4339.681641"/>
    <use xlink:href="#DejaVuSans-20" x="4403.158203"/>
    <use xlink:href="#DejaVuSans-67" x="4434.945312"/>
    <use xlink:href="#DejaVuSans-75" x="4498.421875"/>
    <use xlink:href="#DejaVuSans-61" x="4561.800781"/>
    <use xlink:href="#DejaVuSans-72" x="4623.080078"/>
    <use xlink:href="#DejaVuSans-64" x="4662.443359"/>
    <use xlink:href="#DejaVuSans-20" x="4725.919922"/>
    <use xlink:href="#DejaVuSans-65" x="4757.707031"/>
    <use xlink:href="#DejaVuSans-70" x="4819.230469"/>
    <use xlink:href="#DejaVuSans-6f" x="4882.707031"/>
    <use xlink:href="#DejaVuSans-63" x="4943.888672"/>
    <use xlink:href="#DejaVuSans-68" x="4998.869141"/>
    <use xlink:href="#DejaVuSans-3b" x="5062.248047"/>
    <use xlink:href="#DejaVuSans-20" x="5095.939453"/>
    <use xlink:href="#DejaVuSans-6e" x="5127.726562"/>
    <use xlink:href="#DejaVuSans-6f" x="5191.105469"/>
    <use xlink:href="#DejaVuSans-20" x="5252.287109"/>
    <use xlink:href="#DejaVuSans-6e" x="5284.074219"/>
    <use xlink:href="#DejaVuSans-61" x="5347.453125"/>
    <use xlink:href="#DejaVuSans-74" x="5408.732422"/>
    <use xlink:href="#DejaVuSans-69" x="5447.941406"/>
    <use xlink:href="#DejaVuSans-76" x="5475.724609"/>
    <use xlink:href="#DejaVuSans-65" x="5534.904297"/>
    <use xlink:href="#DejaVuSans-20" x="5596.427734"/>
    <use xlink:href="#DejaVuSans-53" x="5628.214844"/>
    <use xlink:href="#DejaVuSans-47" x="5691.691406"/>
    <use xlink:href="#DejaVuSans-20" x="5769.181641"/>
    <use xlink:href="#DejaVuSans-2f" x="5800.96875"/>
    <use xlink:href="#DejaVuSans-20" x="5834.660156"/>
    <use xlink:href="#DejaVuSans-63" x="5866.447266"/>
    <use xlink:href="#DejaVuSans-6f" x="5921.427734"/>
    <use xlink:href="#DejaVuSans-76" x="5982.609375"/>
    <use xlink:href="#DejaVuSans-65" x="6041.789062"/>
    <use xlink:href="#DejaVuSans-72" x="6103.3125"/>
    <use xlink:href="#DejaVuSans-61" x="6144.425781"/>
    <use xlink:href="#DejaVuSans-67" x="6205.705078"/>
    <use xlink:href="#DejaVuSans-65" x="6269.181641"/>
    <use xlink:href="#DejaVuSans-20" x="6330.705078"/>
    <use xlink:href="#DejaVuSans-63" x="6362.492188"/>
    <use xlink:href="#DejaVuSans-6c" x="6417.472656"/>
    <use xlink:href="#DejaVuSans-61" x="6445.255859"/>
    <use xlink:href="#DejaVuSans-69" x="6506.535156"/>
    <use xlink:href="#DejaVuSans-6d" x="6534.318359"/>
    <use xlink:href="#DejaVuSans-2e" x="6631.730469"/>
   </g>
  </g>
 </g>
 <defs>
  <clipPath id="pd2c01d67ef">
   <rect x="56.18" y="74.739141" width="385.411437" height="192.705718"/>
  </clipPath>
  <clipPath id="pc6459bd8fd">
   <rect x="536.956032" y="25.44" width="275.8765" height="291.304"/>
  </clipPath>
 </defs>
</svg>
